<?xml version="1.0" encoding="UTF-8"?>
<svg xmlns="http://www.w3.org/2000/svg" width="885" height="944" viewBox="0 0 885 944" role="img" aria-label="Nekomin cat icon">
  <path d="M 407 8 L 404 9 L 401 9 L 398 9 L 395 9 L 392 9 L 389 9 L 386 9 L 383 10 L 380 10 L 377 10 L 374 11 L 371 11 L 368 11 L 365 12 L 362 12 L 359 13 L 356 13 L 353 14 L 350 14 L 347 15 L 344 15 L 341 16 L 338 17 L 335 17 L 332 18 L 329 19 L 326 19 L 323 20 L 320 21 L 317 22 L 314 23 L 311 23 L 308 24 L 305 25 L 302 26 L 299 27 L 296 28 L 293 29 L 290 30 L 287 31 L 284 32 L 281 34 L 278 35 L 275 36 L 272 37 L 269 38 L 266 40 L 263 41 L 260 42 L 257 44 L 254 45 L 251 46 L 248 48 L 245 49 L 242 51 L 239 52 L 236 54 L 233 56 L 230 57 L 227 59 L 224 61 L 221 62 L 218 64 L 215 66 L 212 68 L 209 70 L 206 72 L 203 73 L 200 75 L 197 77 L 194 80 L 191 82 L 188 84 L 185 86 L 182 88 L 179 90 L 176 93 L 173 95 L 170 97 L 167 100 L 164 102 L 161 105 L 158 107 L 155 110 L 152 112 L 149 115 L 146 118 L 143 120 L 140 123 L 137 126 L 134 129 L 131 132 L 128 135 L 126 138 L 123 141 L 120 144 L 117 147 L 115 150 L 112 153 L 109 156 L 107 159 L 104 162 L 102 165 L 99 168 L 97 171 L 94 174 L 92 177 L 90 180 L 88 183 L 85 186 L 83 189 L 81 192 L 79 195 L 77 198 L 75 201 L 73 204 L 71 207 L 69 210 L 67 213 L 65 216 L 64 219 L 62 222 L 60 225 L 58 228 L 57 231 L 55 234 L 54 237 L 52 240 L 50 243 L 49 246 L 47 249 L 46 252 L 45 255 L 43 258 L 42 261 L 41 264 L 39 267 L 38 270 L 37 273 L 36 276 L 35 279 L 33 282 L 32 285 L 31 288 L 30 291 L 29 294 L 28 297 L 27 300 L 26 303 L 25 306 L 24 309 L 23 312 L 23 315 L 22 318 L 21 321 L 20 324 L 19 327 L 19 330 L 18 333 L 17 336 L 17 339 L 16 342 L 15 345 L 15 348 L 14 351 L 14 354 L 13 357 L 13 360 L 12 363 L 12 366 L 11 369 L 11 372 L 11 375 L 10 378 L 10 381 L 10 384 L 9 387 L 9 390 L 9 393 L 9 396 L 9 399 L 8 402 L 8 405 L 8 408 L 8 411 L 8 414 L 8 417 L 8 420 L 8 423 L 8 426 L 8 429 L 8 432 L 8 435 L 8 438 L 8 441 L 9 444 L 9 447 L 9 450 L 9 453 L 10 456 L 10 459 L 10 462 L 10 465 L 11 468 L 11 471 L 12 474 L 12 477 L 13 480 L 13 483 L 14 486 L 14 489 L 15 492 L 15 495 L 16 498 L 17 501 L 17 504 L 18 507 L 19 510 L 20 513 L 20 516 L 21 519 L 22 522 L 23 525 L 24 528 L 25 531 L 26 534 L 27 537 L 28 540 L 29 543 L 30 546 L 31 549 L 32 552 L 33 555 L 35 558 L 36 561 L 37 564 L 38 567 L 40 570 L 41 573 L 42 576 L 43 579 L 45 582 L 46 585 L 48 588 L 49 591 L 50 594 L 52 597 L 54 600 L 55 603 L 57 606 L 58 609 L 60 612 L 62 615 L 63 618 L 65 621 L 67 624 L 69 627 L 70 630 L 72 633 L 74 636 L 76 639 L 78 642 L 80 645 L 82 648 L 84 651 L 86 654 L 88 657 L 90 660 L 92 663 L 94 666 L 96 669 L 99 672 L 101 675 L 103 678 L 105 681 L 108 684 L 110 687 L 113 690 L 115 693 L 117 696 L 120 699 L 122 702 L 125 705 L 128 708 L 130 711 L 133 714 L 136 717 L 138 720 L 141 723 L 144 726 L 147 729 L 150 732 L 153 735 L 156 738 L 159 741 L 162 744 L 165 747 L 168 750 L 171 752 L 174 755 L 177 758 L 180 760 L 183 763 L 186 765 L 189 768 L 192 770 L 195 773 L 198 775 L 201 778 L 204 780 L 207 782 L 210 784 L 213 787 L 216 789 L 219 791 L 222 793 L 225 795 L 228 797 L 231 799 L 234 800 L 237 802 L 240 804 L 243 805 L 246 807 L 249 809 L 252 810 L 255 812 L 258 813 L 261 814 L 264 816 L 267 817 L 270 818 L 273 820 L 276 821 L 279 822 L 282 823 L 285 824 L 288 826 L 291 827 L 294 827 L 297 828 L 300 829 L 303 830 L 306 831 L 309 832 L 312 832 L 315 833 L 318 834 L 321 834 L 324 835 L 327 835 L 330 836 L 333 836 L 336 837 L 339 837 L 342 837 L 345 837 L 348 838 L 351 838 L 354 838 L 357 838 L 360 838 L 363 838 L 366 838 L 369 838 L 372 838 L 375 838 L 378 837 L 381 837 L 384 837 L 387 836 L 390 836 L 393 836 L 396 835 L 399 835 L 402 834 L 405 833 L 408 833 L 411 832 L 414 831 L 417 831 L 420 830 L 423 829 L 426 828 L 429 827 L 432 826 L 435 825 L 438 824 L 441 823 L 444 822 L 447 821 L 450 820 L 453 818 L 456 817 L 459 815 L 462 814 L 465 813 L 468 811 L 471 809 L 474 808 L 477 806 L 480 804 L 483 802 L 486 800 L 489 798 L 492 796 L 495 794 L 498 792 L 501 790 L 504 788 L 507 786 L 510 783 L 513 781 L 516 778 L 519 776 L 522 774 L 525 771 L 528 768 L 531 766 L 534 763 L 537 761 L 540 758 L 543 756 L 546 753 L 549 751 L 552 749 L 555 747 L 558 745 L 561 743 L 564 741 L 567 739 L 570 737 L 573 736 L 576 734 L 579 733 L 582 732 L 585 730 L 588 730 L 591 729 L 594 728 L 597 727 L 600 727 L 603 726 L 606 726 L 609 726 L 612 725 L 615 726 L 618 726 L 621 726 L 624 727 L 627 728 L 630 729 L 633 730 L 636 731 L 639 733 L 642 736 L 645 738 L 647 741 L 650 744 L 651 747 L 653 750 L 654 753 L 655 756 L 655 759 L 656 762 L 656 765 L 656 768 L 657 771 L 656 774 L 656 777 L 656 780 L 655 783 L 655 786 L 654 789 L 653 792 L 652 795 L 651 798 L 650 801 L 649 804 L 647 807 L 646 810 L 644 813 L 642 816 L 641 819 L 639 822 L 637 825 L 634 828 L 632 831 L 629 834 L 626 837 L 624 840 L 621 843 L 618 845 L 615 848 L 612 850 L 611 851 L 614 850 L 617 848 L 620 846 L 623 844 L 626 842 L 629 840 L 632 838 L 635 835 L 638 833 L 641 830 L 644 828 L 646 826 L 648 823 L 651 820 L 654 817 L 656 814 L 658 811 L 660 808 L 662 805 L 664 802 L 666 799 L 667 796 L 668 793 L 670 790 L 671 787 L 672 784 L 673 781 L 673 778 L 674 775 L 675 772 L 675 769 L 675 766 L 675 763 L 675 760 L 675 757 L 675 754 L 674 751 L 674 748 L 673 745 L 672 742 L 671 739 L 670 736 L 669 733 L 667 730 L 665 727 L 663 724 L 660 721 L 657 718 L 654 715 L 651 713 L 648 711 L 645 710 L 642 708 L 639 707 L 636 706 L 633 705 L 630 705 L 627 704 L 624 703 L 621 703 L 618 703 L 615 702 L 612 702 L 609 702 L 606 703 L 603 703 L 600 703 L 597 703 L 594 704 L 591 704 L 588 705 L 585 706 L 582 707 L 579 708 L 576 709 L 573 710 L 570 711 L 567 712 L 564 713 L 561 715 L 558 716 L 555 718 L 552 719 L 549 721 L 546 723 L 543 725 L 540 726 L 537 728 L 534 730 L 531 732 L 528 734 L 525 737 L 522 739 L 519 741 L 516 743 L 513 745 L 510 748 L 507 750 L 504 752 L 501 754 L 498 757 L 495 759 L 492 761 L 489 763 L 486 765 L 483 767 L 480 769 L 477 771 L 474 773 L 471 775 L 468 777 L 465 778 L 462 780 L 459 782 L 456 783 L 453 785 L 450 786 L 447 788 L 444 789 L 441 791 L 438 792 L 435 793 L 432 795 L 429 796 L 426 797 L 423 798 L 420 799 L 417 800 L 414 801 L 411 802 L 408 802 L 405 803 L 402 804 L 399 805 L 396 805 L 393 806 L 390 806 L 387 807 L 384 807 L 381 808 L 378 808 L 375 808 L 372 808 L 369 809 L 366 809 L 363 809 L 360 809 L 357 809 L 354 809 L 351 809 L 348 809 L 345 809 L 342 808 L 339 808 L 336 808 L 333 808 L 330 807 L 327 807 L 324 806 L 321 806 L 318 805 L 315 805 L 312 804 L 309 804 L 306 803 L 303 802 L 300 802 L 297 801 L 294 800 L 291 799 L 288 798 L 285 797 L 282 796 L 279 795 L 276 794 L 273 793 L 270 792 L 267 790 L 264 789 L 261 788 L 258 786 L 255 785 L 252 784 L 249 782 L 246 781 L 243 779 L 240 778 L 237 776 L 234 774 L 231 773 L 228 771 L 225 769 L 222 767 L 219 765 L 216 763 L 213 761 L 210 759 L 207 756 L 204 753 L 201 751 L 199 749 L 199 746 L 202 748 L 205 751 L 208 753 L 207 751 L 206 748 L 204 745 L 202 742 L 201 739 L 200 736 L 198 733 L 197 730 L 196 727 L 195 724 L 195 721 L 194 718 L 194 715 L 193 712 L 193 709 L 193 706 L 193 703 L 193 700 L 193 697 L 194 694 L 194 691 L 195 688 L 196 685 L 197 682 L 198 679 L 200 676 L 202 673 L 204 670 L 206 667 L 208 664 L 211 661 L 214 658 L 217 656 L 220 653 L 223 651 L 226 649 L 229 647 L 232 645 L 235 643 L 238 641 L 241 640 L 244 639 L 247 637 L 250 636 L 253 635 L 256 634 L 259 632 L 262 631 L 265 630 L 268 629 L 271 629 L 274 628 L 277 627 L 280 626 L 283 625 L 286 625 L 289 624 L 292 624 L 295 623 L 298 623 L 301 622 L 304 622 L 307 622 L 310 621 L 313 621 L 316 621 L 319 620 L 322 620 L 325 620 L 328 620 L 331 620 L 334 620 L 337 620 L 340 620 L 343 620 L 346 620 L 349 620 L 352 620 L 355 620 L 358 621 L 361 621 L 364 621 L 367 621 L 370 622 L 373 622 L 376 622 L 379 623 L 382 623 L 385 623 L 388 624 L 391 624 L 394 625 L 397 625 L 400 626 L 403 626 L 406 626 L 409 627 L 412 627 L 415 628 L 418 629 L 421 629 L 424 630 L 427 630 L 430 631 L 433 631 L 436 632 L 439 632 L 442 633 L 445 634 L 448 634 L 451 635 L 454 635 L 457 636 L 460 636 L 463 637 L 466 637 L 469 638 L 472 638 L 475 639 L 478 639 L 481 639 L 484 640 L 487 640 L 490 640 L 493 641 L 496 641 L 499 641 L 502 641 L 505 642 L 508 642 L 511 642 L 514 642 L 517 642 L 520 642 L 523 642 L 526 642 L 529 642 L 532 642 L 535 642 L 538 642 L 541 641 L 544 641 L 547 641 L 550 641 L 553 640 L 556 640 L 559 639 L 562 639 L 565 638 L 568 638 L 571 637 L 574 636 L 577 636 L 580 635 L 583 634 L 586 633 L 589 632 L 592 631 L 595 630 L 598 629 L 601 627 L 604 626 L 607 624 L 610 623 L 613 621 L 616 620 L 619 618 L 622 616 L 625 614 L 628 612 L 631 610 L 634 608 L 637 606 L 640 603 L 643 601 L 645 598 L 645 598 L 642 600 L 639 602 L 636 604 L 633 606 L 630 608 L 627 610 L 624 611 L 621 613 L 618 614 L 615 616 L 612 617 L 609 618 L 606 619 L 603 621 L 600 622 L 597 623 L 594 624 L 591 625 L 588 625 L 585 626 L 582 627 L 579 628 L 576 628 L 573 629 L 570 629 L 567 630 L 564 630 L 561 631 L 558 631 L 555 631 L 552 632 L 549 632 L 546 632 L 543 632 L 540 632 L 537 632 L 534 632 L 531 632 L 528 632 L 525 632 L 522 632 L 519 632 L 516 631 L 513 631 L 510 631 L 507 631 L 504 630 L 501 630 L 498 629 L 495 629 L 492 629 L 489 628 L 486 628 L 483 627 L 480 627 L 477 626 L 474 626 L 471 625 L 468 624 L 465 624 L 462 623 L 459 622 L 456 622 L 453 621 L 450 620 L 447 620 L 444 619 L 441 618 L 438 617 L 435 617 L 432 616 L 429 615 L 426 614 L 423 614 L 420 613 L 417 612 L 414 611 L 411 611 L 408 610 L 405 609 L 402 608 L 399 608 L 396 607 L 393 606 L 390 606 L 387 605 L 384 604 L 381 604 L 378 603 L 375 602 L 372 602 L 369 601 L 366 601 L 363 600 L 360 600 L 357 599 L 354 599 L 351 598 L 348 598 L 345 597 L 342 597 L 339 597 L 336 596 L 333 596 L 330 596 L 327 596 L 324 595 L 321 595 L 318 595 L 315 595 L 312 595 L 309 595 L 306 594 L 303 595 L 300 595 L 297 595 L 294 595 L 291 595 L 288 595 L 285 595 L 282 596 L 279 596 L 276 597 L 273 597 L 270 598 L 267 598 L 264 599 L 261 599 L 258 600 L 255 601 L 252 602 L 249 602 L 246 603 L 243 604 L 240 605 L 237 606 L 234 608 L 231 609 L 228 610 L 225 611 L 222 613 L 219 614 L 216 616 L 213 618 L 210 620 L 207 622 L 204 624 L 201 626 L 198 629 L 195 631 L 192 634 L 189 637 L 187 640 L 184 643 L 182 646 L 180 649 L 178 652 L 176 655 L 175 658 L 174 661 L 172 664 L 171 667 L 171 670 L 170 673 L 169 676 L 169 679 L 169 682 L 169 685 L 169 688 L 169 691 L 169 694 L 170 697 L 170 700 L 171 703 L 172 706 L 173 709 L 174 712 L 176 715 L 177 718 L 179 721 L 181 724 L 183 727 L 185 730 L 187 733 L 190 736 L 193 739 L 193 742 L 190 739 L 187 736 L 184 733 L 182 730 L 179 727 L 177 724 L 174 721 L 172 718 L 169 715 L 167 712 L 165 709 L 163 706 L 160 703 L 158 700 L 155 697 L 153 694 L 151 691 L 148 688 L 146 685 L 143 682 L 141 679 L 139 676 L 137 673 L 134 670 L 132 667 L 130 664 L 127 661 L 125 658 L 123 655 L 121 652 L 119 649 L 117 646 L 114 643 L 112 640 L 110 637 L 108 634 L 106 631 L 104 628 L 102 625 L 100 622 L 98 619 L 97 616 L 95 613 L 93 610 L 91 607 L 89 604 L 88 601 L 86 598 L 84 595 L 83 592 L 81 589 L 80 586 L 78 583 L 76 580 L 75 577 L 74 574 L 72 571 L 71 568 L 69 565 L 68 562 L 67 559 L 65 556 L 64 553 L 63 550 L 62 547 L 60 544 L 59 541 L 58 538 L 57 535 L 56 532 L 55 529 L 54 526 L 53 523 L 52 520 L 51 517 L 50 514 L 49 511 L 48 508 L 47 505 L 46 502 L 46 499 L 45 496 L 44 493 L 44 490 L 43 487 L 42 484 L 42 481 L 41 478 L 41 475 L 40 472 L 39 469 L 39 466 L 39 463 L 38 460 L 38 457 L 37 454 L 37 451 L 37 448 L 37 445 L 36 442 L 36 439 L 36 436 L 36 433 L 36 430 L 36 427 L 36 424 L 36 421 L 35 418 L 36 415 L 36 412 L 36 409 L 36 406 L 36 403 L 36 400 L 36 397 L 36 394 L 37 391 L 37 388 L 37 385 L 38 382 L 38 379 L 38 376 L 39 373 L 39 370 L 40 367 L 40 364 L 41 361 L 41 358 L 42 355 L 42 352 L 43 349 L 43 346 L 44 343 L 45 340 L 45 337 L 46 334 L 47 331 L 48 328 L 49 325 L 49 322 L 50 319 L 51 316 L 52 313 L 53 310 L 54 307 L 55 304 L 56 301 L 57 298 L 58 295 L 59 292 L 60 289 L 62 286 L 63 283 L 64 280 L 65 277 L 66 274 L 68 271 L 69 268 L 71 265 L 72 262 L 73 259 L 75 256 L 76 253 L 78 250 L 79 247 L 81 244 L 83 241 L 84 238 L 86 235 L 88 232 L 90 229 L 91 226 L 93 223 L 95 220 L 97 217 L 99 214 L 101 211 L 103 208 L 105 205 L 107 202 L 109 199 L 111 196 L 113 193 L 115 190 L 118 187 L 120 184 L 122 181 L 125 178 L 127 175 L 129 172 L 132 169 L 134 166 L 137 163 L 140 160 L 142 157 L 145 154 L 148 151 L 151 148 L 154 145 L 157 142 L 160 139 L 163 136 L 166 133 L 169 130 L 172 127 L 175 124 L 178 122 L 181 119 L 184 116 L 187 114 L 190 111 L 193 109 L 196 107 L 199 104 L 202 102 L 205 100 L 208 97 L 211 95 L 214 93 L 217 91 L 220 89 L 223 87 L 226 85 L 229 83 L 232 81 L 235 79 L 238 77 L 241 75 L 244 73 L 247 71 L 250 70 L 253 68 L 256 66 L 259 65 L 262 63 L 265 62 L 268 60 L 271 59 L 274 57 L 277 56 L 280 54 L 283 53 L 286 51 L 289 50 L 292 49 L 295 48 L 298 46 L 301 45 L 304 44 L 307 43 L 310 42 L 313 40 L 316 39 L 319 39 L 322 38 L 325 37 L 328 35 L 331 35 L 334 34 L 337 33 L 340 32 L 343 31 L 346 30 L 349 29 L 352 29 L 355 28 L 358 27 L 361 27 L 364 26 L 367 25 L 370 25 L 373 24 L 376 23 L 379 23 L 382 23 L 385 22 L 388 22 L 391 21 L 394 21 L 397 20 L 400 20 L 403 20 L 406 19 L 409 19 L 412 19 L 415 19 L 418 19 L 421 19 L 424 18 L 427 18 L 430 18 L 433 18 L 436 18 L 439 18 L 442 19 L 445 19 L 448 19 L 451 19 L 454 19 L 457 19 L 460 20 L 463 20 L 466 20 L 469 21 L 472 21 L 475 21 L 478 22 L 481 22 L 484 23 L 487 23 L 490 23 L 493 24 L 496 25 L 499 25 L 502 26 L 505 26 L 508 27 L 511 28 L 514 29 L 517 29 L 520 30 L 523 31 L 526 32 L 529 33 L 532 34 L 535 35 L 538 36 L 541 37 L 544 38 L 547 39 L 550 40 L 553 41 L 556 43 L 559 44 L 562 45 L 565 47 L 568 48 L 569 48 L 566 46 L 563 45 L 560 43 L 557 41 L 554 40 L 551 38 L 548 37 L 545 35 L 542 34 L 539 33 L 536 32 L 533 30 L 530 29 L 527 28 L 524 27 L 521 26 L 518 25 L 515 24 L 512 23 L 509 22 L 506 21 L 503 20 L 500 20 L 497 19 L 494 18 L 491 17 L 488 17 L 485 16 L 482 15 L 479 15 L 476 14 L 473 14 L 470 13 L 467 13 L 464 12 L 461 12 L 458 11 L 455 11 L 452 11 L 449 10 L 446 10 L 443 10 L 440 9 L 437 9 L 434 9 L 431 9 L 428 9 L 425 9 L 422 9 L 419 9 L 416 8 L 413 8 L 410 8 L 407 8 Z M 193 742 L 194 741 L 195 742 L 196 743 L 197 744 L 198 744 L 199 745 L 199 746 L 198 747 L 197 747 L 196 746 L 195 745 L 194 744 L 193 743 L 193 742 Z" fill="#000000" fill-rule="evenodd"/>
  <path d="M 470 67 L 469 70 L 467 73 L 465 76 L 464 79 L 463 82 L 462 85 L 461 88 L 460 91 L 459 94 L 458 97 L 457 100 L 456 103 L 455 106 L 454 109 L 454 112 L 453 115 L 453 118 L 452 121 L 452 124 L 451 127 L 451 130 L 450 133 L 450 136 L 449 139 L 449 142 L 449 145 L 449 148 L 448 151 L 448 154 L 448 157 L 448 160 L 448 163 L 448 166 L 448 169 L 447 172 L 447 175 L 448 178 L 448 181 L 448 184 L 448 187 L 448 190 L 448 193 L 448 196 L 448 199 L 449 202 L 449 205 L 449 208 L 450 211 L 450 214 L 450 217 L 451 220 L 451 223 L 452 226 L 453 229 L 453 232 L 454 235 L 455 238 L 453 240 L 450 241 L 447 242 L 444 243 L 441 244 L 438 245 L 435 246 L 432 247 L 429 248 L 426 249 L 423 250 L 420 251 L 417 253 L 414 254 L 411 256 L 408 257 L 405 258 L 402 260 L 399 262 L 396 263 L 393 265 L 390 267 L 387 269 L 384 271 L 381 273 L 378 275 L 375 277 L 372 280 L 369 282 L 366 285 L 363 287 L 360 290 L 357 293 L 354 296 L 352 299 L 349 297 L 347 294 L 345 291 L 344 288 L 342 285 L 340 282 L 339 279 L 337 276 L 336 273 L 334 270 L 333 267 L 331 264 L 330 261 L 329 258 L 327 255 L 326 252 L 325 249 L 324 246 L 323 243 L 322 240 L 321 237 L 320 234 L 319 231 L 318 228 L 318 225 L 317 222 L 316 219 L 316 216 L 316 213 L 316 210 L 315 207 L 318 205 L 321 205 L 324 205 L 327 205 L 330 205 L 333 205 L 336 205 L 339 206 L 342 206 L 345 206 L 348 206 L 351 207 L 354 207 L 357 208 L 360 208 L 363 209 L 366 209 L 369 210 L 372 210 L 375 211 L 378 212 L 381 212 L 384 213 L 387 214 L 390 215 L 393 215 L 396 216 L 399 217 L 402 218 L 405 219 L 408 220 L 411 221 L 414 222 L 417 223 L 420 224 L 423 225 L 426 227 L 429 228 L 432 229 L 435 230 L 438 232 L 441 233 L 444 234 L 447 235 L 450 237 L 452 237 L 449 235 L 446 233 L 443 231 L 440 230 L 437 228 L 434 227 L 431 225 L 428 223 L 425 222 L 422 220 L 419 219 L 416 218 L 413 217 L 410 215 L 407 214 L 404 213 L 401 212 L 398 211 L 395 209 L 392 208 L 389 207 L 386 206 L 383 205 L 380 204 L 377 204 L 374 203 L 371 202 L 368 202 L 365 201 L 362 200 L 359 200 L 356 199 L 353 199 L 350 198 L 347 198 L 344 197 L 341 197 L 338 197 L 335 197 L 332 196 L 329 196 L 326 196 L 323 196 L 320 196 L 317 196 L 314 197 L 311 197 L 308 197 L 305 198 L 305 201 L 305 204 L 305 207 L 306 210 L 306 213 L 307 216 L 307 219 L 308 222 L 309 225 L 310 228 L 311 231 L 312 234 L 313 237 L 314 240 L 315 243 L 317 246 L 318 249 L 319 252 L 321 255 L 322 258 L 324 261 L 325 264 L 327 267 L 329 270 L 331 273 L 332 276 L 334 279 L 336 282 L 338 285 L 340 288 L 342 291 L 344 294 L 347 297 L 349 300 L 348 303 L 346 306 L 343 309 L 341 312 L 339 315 L 337 318 L 335 321 L 333 324 L 331 327 L 329 330 L 327 333 L 325 336 L 324 339 L 322 342 L 321 345 L 320 348 L 318 351 L 317 354 L 316 357 L 315 360 L 314 363 L 313 366 L 312 369 L 311 372 L 311 375 L 310 378 L 309 381 L 309 384 L 308 387 L 308 390 L 308 393 L 307 396 L 307 399 L 307 402 L 307 405 L 307 408 L 307 411 L 306 414 L 307 417 L 307 420 L 307 423 L 307 426 L 307 429 L 307 432 L 308 435 L 308 438 L 308 441 L 309 444 L 309 447 L 309 450 L 308 453 L 308 456 L 307 459 L 306 462 L 305 465 L 304 468 L 303 471 L 302 474 L 301 477 L 299 480 L 297 483 L 295 486 L 294 489 L 292 492 L 289 495 L 287 498 L 285 501 L 283 504 L 281 507 L 281 510 L 283 513 L 285 516 L 287 519 L 290 522 L 292 525 L 295 528 L 297 531 L 299 534 L 301 537 L 303 540 L 305 543 L 308 546 L 310 549 L 313 552 L 316 555 L 319 557 L 322 560 L 325 562 L 328 564 L 331 566 L 334 568 L 337 570 L 340 572 L 343 574 L 346 575 L 349 577 L 352 578 L 355 580 L 358 581 L 361 582 L 364 583 L 367 584 L 370 585 L 373 586 L 376 587 L 379 587 L 382 588 L 385 589 L 388 589 L 385 588 L 382 587 L 379 586 L 376 585 L 373 584 L 370 583 L 367 582 L 364 580 L 361 579 L 358 577 L 355 576 L 352 574 L 349 572 L 346 571 L 343 569 L 340 567 L 337 565 L 334 563 L 331 560 L 328 558 L 325 555 L 322 552 L 319 549 L 316 546 L 314 543 L 311 540 L 309 537 L 307 534 L 306 531 L 304 528 L 303 525 L 303 522 L 302 519 L 303 516 L 303 513 L 305 510 L 306 507 L 307 504 L 307 501 L 304 500 L 301 500 L 298 499 L 297 496 L 299 493 L 301 490 L 303 487 L 305 484 L 306 481 L 308 478 L 309 475 L 310 472 L 311 469 L 312 466 L 313 463 L 313 460 L 314 457 L 314 454 L 315 451 L 315 448 L 315 445 L 315 442 L 315 439 L 315 436 L 315 433 L 315 430 L 314 427 L 314 424 L 314 421 L 315 418 L 315 415 L 315 412 L 315 409 L 315 406 L 316 403 L 316 400 L 317 397 L 317 394 L 318 391 L 319 388 L 319 385 L 320 382 L 321 379 L 322 376 L 323 373 L 324 370 L 325 367 L 326 364 L 328 361 L 329 358 L 330 355 L 332 352 L 333 349 L 335 346 L 337 343 L 339 340 L 341 337 L 343 334 L 345 331 L 347 328 L 349 325 L 352 322 L 354 319 L 357 316 L 360 313 L 362 310 L 365 307 L 368 304 L 371 302 L 374 299 L 377 296 L 380 294 L 383 292 L 386 289 L 389 287 L 392 285 L 395 283 L 398 281 L 401 279 L 404 277 L 407 276 L 410 274 L 413 272 L 416 271 L 419 269 L 422 268 L 425 267 L 428 265 L 431 264 L 434 263 L 437 262 L 440 261 L 443 260 L 446 259 L 449 258 L 452 257 L 455 256 L 458 255 L 461 254 L 464 253 L 467 252 L 470 251 L 473 251 L 474 248 L 473 245 L 472 242 L 471 239 L 470 236 L 469 233 L 469 230 L 468 227 L 467 224 L 467 221 L 466 218 L 465 215 L 465 212 L 464 209 L 464 206 L 464 203 L 463 200 L 463 197 L 462 194 L 462 191 L 462 188 L 461 185 L 461 182 L 461 179 L 461 176 L 461 173 L 460 170 L 460 167 L 460 164 L 460 161 L 460 158 L 460 155 L 460 152 L 460 149 L 460 146 L 461 143 L 461 140 L 461 137 L 461 134 L 461 131 L 462 128 L 462 125 L 462 122 L 463 119 L 463 116 L 464 113 L 464 110 L 465 107 L 465 104 L 466 101 L 467 98 L 467 95 L 468 92 L 469 89 L 470 86 L 471 83 L 472 80 L 474 77 L 477 78 L 480 80 L 483 83 L 486 85 L 489 87 L 492 90 L 495 92 L 498 95 L 501 97 L 504 100 L 507 103 L 510 106 L 513 109 L 516 112 L 519 115 L 521 118 L 524 121 L 527 124 L 529 127 L 532 130 L 535 133 L 537 136 L 540 139 L 542 142 L 545 145 L 547 148 L 549 151 L 552 154 L 554 157 L 556 160 L 559 163 L 561 166 L 563 169 L 565 172 L 568 175 L 570 178 L 572 181 L 574 184 L 576 187 L 578 190 L 581 193 L 583 196 L 585 199 L 587 202 L 589 205 L 592 208 L 594 211 L 597 214 L 599 217 L 602 220 L 605 223 L 608 226 L 611 229 L 614 232 L 617 235 L 620 238 L 623 240 L 626 243 L 629 245 L 632 245 L 635 246 L 638 247 L 641 248 L 644 249 L 647 250 L 650 251 L 653 252 L 656 253 L 659 254 L 662 255 L 665 256 L 668 258 L 671 259 L 674 260 L 677 261 L 680 263 L 683 264 L 686 266 L 689 267 L 692 269 L 695 271 L 698 272 L 701 274 L 704 276 L 707 277 L 710 279 L 713 281 L 716 283 L 719 285 L 722 287 L 725 289 L 728 292 L 731 294 L 734 296 L 737 299 L 740 301 L 743 304 L 746 306 L 749 309 L 752 312 L 755 314 L 758 317 L 761 320 L 764 323 L 767 326 L 769 329 L 772 332 L 775 335 L 777 338 L 780 341 L 782 344 L 784 347 L 787 350 L 789 353 L 791 356 L 793 359 L 795 362 L 797 365 L 799 368 L 801 371 L 802 374 L 804 377 L 806 380 L 808 383 L 809 386 L 811 389 L 812 392 L 814 395 L 815 398 L 817 401 L 818 404 L 819 407 L 821 410 L 822 413 L 823 416 L 824 419 L 826 422 L 827 425 L 828 428 L 829 431 L 830 434 L 831 437 L 832 440 L 833 443 L 834 446 L 835 449 L 836 452 L 836 455 L 837 458 L 838 461 L 839 464 L 840 467 L 840 470 L 841 473 L 842 476 L 842 479 L 843 482 L 843 485 L 844 488 L 845 491 L 845 494 L 845 497 L 846 500 L 846 503 L 847 506 L 847 509 L 847 512 L 847 515 L 848 518 L 848 521 L 848 524 L 848 527 L 848 530 L 848 533 L 848 536 L 848 539 L 848 542 L 849 545 L 849 548 L 848 551 L 848 554 L 848 557 L 848 560 L 848 563 L 848 566 L 848 569 L 847 572 L 847 575 L 847 578 L 847 581 L 846 584 L 846 587 L 845 590 L 845 593 L 844 596 L 844 599 L 843 602 L 843 605 L 842 608 L 842 611 L 841 614 L 840 617 L 840 620 L 839 623 L 838 626 L 837 629 L 837 632 L 836 635 L 835 638 L 834 641 L 833 644 L 832 647 L 831 650 L 830 653 L 829 656 L 828 659 L 827 662 L 826 665 L 824 668 L 823 671 L 822 674 L 821 677 L 819 680 L 818 683 L 816 686 L 815 689 L 813 692 L 812 695 L 810 698 L 809 701 L 807 704 L 806 707 L 804 710 L 802 713 L 800 716 L 799 719 L 797 722 L 795 725 L 793 728 L 791 731 L 789 734 L 787 737 L 785 740 L 783 743 L 780 746 L 778 749 L 776 752 L 774 755 L 771 758 L 769 761 L 767 764 L 764 767 L 762 770 L 759 773 L 756 776 L 754 779 L 751 782 L 748 785 L 745 788 L 743 791 L 741 793 L 738 796 L 735 799 L 732 802 L 729 804 L 726 807 L 723 810 L 720 813 L 717 816 L 714 818 L 711 821 L 708 823 L 705 826 L 702 828 L 699 831 L 696 833 L 693 835 L 690 838 L 687 840 L 684 842 L 681 844 L 678 846 L 675 848 L 672 850 L 669 852 L 666 854 L 663 856 L 660 858 L 657 860 L 654 862 L 651 864 L 648 865 L 645 867 L 642 869 L 639 870 L 636 872 L 633 874 L 630 875 L 627 877 L 624 878 L 621 880 L 618 881 L 615 882 L 612 884 L 609 885 L 606 886 L 603 888 L 600 889 L 597 890 L 594 891 L 591 892 L 588 894 L 585 895 L 582 896 L 579 897 L 576 898 L 573 899 L 570 900 L 567 900 L 564 901 L 561 902 L 558 903 L 555 904 L 552 905 L 549 906 L 546 906 L 543 907 L 540 908 L 537 908 L 534 909 L 531 910 L 528 910 L 525 911 L 522 911 L 519 912 L 516 913 L 513 913 L 510 914 L 507 914 L 504 915 L 501 915 L 498 915 L 495 916 L 492 916 L 489 916 L 486 917 L 483 917 L 480 917 L 477 918 L 474 918 L 471 918 L 468 918 L 465 919 L 462 919 L 459 919 L 456 919 L 453 919 L 450 919 L 447 919 L 444 919 L 441 919 L 438 919 L 435 919 L 432 919 L 429 919 L 426 919 L 423 919 L 420 918 L 417 918 L 414 918 L 411 918 L 408 917 L 405 917 L 402 917 L 399 916 L 396 916 L 393 916 L 390 915 L 387 915 L 384 914 L 381 914 L 378 913 L 375 913 L 372 912 L 369 912 L 366 911 L 363 911 L 360 910 L 357 909 L 354 909 L 351 908 L 348 908 L 345 907 L 342 906 L 339 905 L 336 904 L 333 904 L 330 903 L 327 902 L 324 901 L 321 900 L 318 899 L 315 898 L 312 897 L 309 896 L 306 895 L 303 894 L 300 893 L 297 892 L 294 891 L 291 890 L 288 888 L 285 887 L 282 886 L 279 884 L 276 883 L 273 881 L 270 880 L 267 878 L 265 878 L 268 880 L 271 881 L 274 883 L 277 885 L 280 886 L 283 888 L 286 889 L 289 891 L 292 892 L 295 894 L 298 896 L 301 897 L 304 898 L 307 900 L 310 901 L 313 903 L 316 904 L 319 905 L 322 906 L 325 907 L 328 909 L 331 910 L 334 911 L 337 912 L 340 913 L 343 914 L 346 915 L 349 916 L 352 917 L 355 918 L 358 919 L 361 920 L 364 921 L 367 921 L 370 922 L 373 923 L 376 924 L 379 924 L 382 925 L 385 926 L 388 926 L 391 927 L 394 927 L 397 928 L 400 929 L 403 929 L 406 930 L 409 930 L 412 931 L 415 931 L 418 931 L 421 932 L 424 932 L 427 933 L 430 933 L 433 933 L 436 933 L 439 934 L 442 934 L 445 934 L 448 934 L 451 934 L 454 935 L 457 935 L 460 935 L 463 935 L 466 935 L 469 935 L 472 935 L 475 935 L 478 935 L 481 935 L 484 934 L 487 934 L 490 934 L 493 934 L 496 934 L 499 933 L 502 933 L 505 933 L 508 933 L 511 932 L 514 932 L 517 932 L 520 931 L 523 931 L 526 930 L 529 930 L 532 930 L 535 929 L 538 929 L 541 928 L 544 928 L 547 927 L 550 927 L 553 926 L 556 925 L 559 925 L 562 924 L 565 923 L 568 923 L 571 922 L 574 921 L 577 920 L 580 919 L 583 919 L 586 918 L 589 917 L 592 916 L 595 915 L 598 914 L 601 913 L 604 912 L 607 911 L 610 910 L 613 909 L 616 908 L 619 907 L 622 905 L 625 904 L 628 903 L 631 902 L 634 900 L 637 899 L 640 898 L 643 896 L 646 895 L 649 894 L 652 892 L 655 891 L 658 889 L 661 888 L 664 886 L 667 884 L 670 883 L 673 881 L 676 879 L 679 878 L 682 876 L 685 874 L 688 872 L 691 870 L 694 868 L 697 867 L 700 865 L 703 863 L 706 861 L 709 859 L 712 856 L 715 854 L 718 852 L 721 850 L 724 848 L 727 845 L 730 843 L 733 841 L 736 838 L 739 836 L 742 833 L 745 830 L 748 828 L 751 825 L 754 822 L 757 819 L 760 817 L 763 814 L 766 811 L 768 808 L 771 805 L 774 802 L 777 799 L 779 796 L 782 793 L 785 790 L 787 787 L 790 784 L 792 781 L 794 778 L 797 775 L 799 772 L 801 769 L 803 766 L 806 763 L 808 760 L 810 757 L 812 754 L 814 751 L 816 748 L 818 745 L 820 742 L 822 739 L 823 736 L 825 733 L 827 730 L 829 727 L 830 724 L 832 721 L 834 718 L 835 715 L 837 712 L 838 709 L 839 706 L 841 703 L 842 700 L 844 697 L 845 694 L 846 691 L 848 688 L 849 685 L 850 682 L 851 679 L 852 676 L 854 673 L 855 670 L 856 667 L 857 664 L 858 661 L 859 658 L 860 655 L 860 652 L 861 649 L 862 646 L 863 643 L 864 640 L 865 637 L 865 634 L 866 631 L 867 628 L 867 625 L 868 622 L 869 619 L 869 616 L 870 613 L 871 610 L 871 607 L 871 604 L 872 601 L 872 598 L 873 595 L 873 592 L 873 589 L 874 586 L 874 583 L 874 580 L 875 577 L 875 574 L 875 571 L 875 568 L 875 565 L 875 562 L 875 559 L 876 556 L 876 553 L 876 550 L 876 547 L 876 544 L 875 541 L 875 538 L 875 535 L 875 532 L 875 529 L 875 526 L 874 523 L 874 520 L 874 517 L 874 514 L 873 511 L 873 508 L 873 505 L 872 502 L 872 499 L 871 496 L 871 493 L 871 490 L 870 487 L 869 484 L 869 481 L 868 478 L 868 475 L 867 472 L 866 469 L 866 466 L 865 463 L 864 460 L 863 457 L 863 454 L 862 451 L 861 448 L 860 445 L 859 442 L 858 439 L 857 436 L 856 433 L 855 430 L 854 427 L 853 424 L 852 421 L 850 418 L 849 415 L 848 412 L 847 409 L 845 406 L 844 403 L 843 400 L 841 397 L 840 394 L 838 391 L 837 388 L 835 385 L 833 382 L 832 379 L 830 376 L 828 373 L 826 370 L 824 367 L 823 364 L 821 361 L 819 358 L 817 355 L 814 352 L 812 349 L 810 346 L 808 343 L 805 340 L 803 337 L 800 334 L 798 331 L 795 328 L 792 325 L 789 322 L 786 319 L 783 316 L 780 313 L 777 310 L 774 308 L 771 305 L 768 303 L 765 300 L 762 298 L 759 296 L 756 293 L 753 291 L 750 289 L 747 287 L 744 285 L 741 283 L 738 281 L 735 279 L 732 278 L 729 276 L 726 274 L 723 272 L 720 271 L 717 269 L 714 268 L 711 266 L 708 265 L 705 264 L 702 262 L 699 261 L 696 259 L 693 258 L 690 257 L 687 256 L 684 255 L 681 253 L 678 252 L 675 251 L 672 250 L 669 249 L 666 248 L 663 247 L 660 247 L 657 246 L 654 245 L 651 244 L 648 243 L 645 243 L 642 242 L 639 241 L 636 241 L 633 240 L 630 240 L 628 237 L 626 234 L 624 231 L 623 228 L 621 225 L 619 222 L 617 219 L 616 216 L 614 213 L 612 210 L 610 207 L 608 204 L 606 201 L 604 198 L 602 195 L 600 192 L 598 189 L 596 186 L 594 183 L 592 180 L 590 177 L 588 174 L 585 171 L 583 168 L 581 165 L 579 162 L 576 159 L 574 156 L 571 153 L 569 150 L 566 147 L 564 144 L 561 141 L 559 138 L 556 135 L 553 132 L 551 129 L 548 126 L 545 123 L 542 120 L 539 117 L 536 114 L 533 111 L 530 109 L 527 106 L 524 103 L 521 101 L 518 98 L 515 96 L 512 93 L 509 91 L 506 89 L 503 86 L 500 84 L 497 82 L 494 80 L 491 78 L 488 77 L 485 75 L 482 73 L 479 72 L 476 70 L 473 69 L 470 67 Z" fill="#000000" fill-rule="evenodd"/>
  <path d="M 617 422 L 616 423 L 615 423 L 614 423 L 613 423 L 612 423 L 611 423 L 610 423 L 609 423 L 608 424 L 607 424 L 606 424 L 605 424 L 604 424 L 603 424 L 602 424 L 601 424 L 600 425 L 599 425 L 598 425 L 597 425 L 596 425 L 595 425 L 594 426 L 593 426 L 592 426 L 591 426 L 590 426 L 589 426 L 588 427 L 587 427 L 586 427 L 585 427 L 584 427 L 583 428 L 582 428 L 581 428 L 580 428 L 579 428 L 578 429 L 577 429 L 576 429 L 575 429 L 574 430 L 573 430 L 572 430 L 571 430 L 570 431 L 569 431 L 568 431 L 567 431 L 566 432 L 565 432 L 564 432 L 563 433 L 562 433 L 561 433 L 560 433 L 559 434 L 558 434 L 557 434 L 556 435 L 555 435 L 554 435 L 553 436 L 552 436 L 551 436 L 550 437 L 549 437 L 548 437 L 547 438 L 546 438 L 545 438 L 544 439 L 543 439 L 542 439 L 541 440 L 540 440 L 539 440 L 538 441 L 537 441 L 536 442 L 535 442 L 534 442 L 533 443 L 532 443 L 531 443 L 530 444 L 529 444 L 528 445 L 527 445 L 526 445 L 525 446 L 524 446 L 523 447 L 522 447 L 521 448 L 520 448 L 519 448 L 518 449 L 517 449 L 516 450 L 515 450 L 514 451 L 513 451 L 512 452 L 511 452 L 510 452 L 509 453 L 508 453 L 507 454 L 506 454 L 505 455 L 504 455 L 503 456 L 502 456 L 501 457 L 500 458 L 499 458 L 498 459 L 497 459 L 496 460 L 495 460 L 494 461 L 493 461 L 492 462 L 491 462 L 490 463 L 489 463 L 488 464 L 487 465 L 486 465 L 485 466 L 484 466 L 483 467 L 482 467 L 481 468 L 480 469 L 479 469 L 478 470 L 477 470 L 476 471 L 475 472 L 474 472 L 473 473 L 472 474 L 471 474 L 470 475 L 469 476 L 468 476 L 467 477 L 466 478 L 465 478 L 464 479 L 463 480 L 462 480 L 461 481 L 460 482 L 459 483 L 458 483 L 457 484 L 456 485 L 455 485 L 454 486 L 453 487 L 452 488 L 451 488 L 450 489 L 449 489 L 448 490 L 449 490 L 450 489 L 451 489 L 452 488 L 453 488 L 454 487 L 455 487 L 456 486 L 457 486 L 458 485 L 459 485 L 460 484 L 461 483 L 462 483 L 463 482 L 464 482 L 465 482 L 466 481 L 467 480 L 468 480 L 469 480 L 470 479 L 471 479 L 472 478 L 473 478 L 474 477 L 475 477 L 476 476 L 477 476 L 478 475 L 479 475 L 480 474 L 481 474 L 482 473 L 483 473 L 484 472 L 485 472 L 486 471 L 487 471 L 488 470 L 489 470 L 490 470 L 491 469 L 492 469 L 493 468 L 494 468 L 495 467 L 496 467 L 497 466 L 498 466 L 499 465 L 500 465 L 501 464 L 502 464 L 503 463 L 504 463 L 505 462 L 506 462 L 507 461 L 508 461 L 509 461 L 510 460 L 511 460 L 512 459 L 513 459 L 514 458 L 515 458 L 516 457 L 517 457 L 518 456 L 519 456 L 520 455 L 521 455 L 522 455 L 523 454 L 524 454 L 525 453 L 526 453 L 527 452 L 528 452 L 529 452 L 530 451 L 531 451 L 532 450 L 533 450 L 534 450 L 535 449 L 536 449 L 537 448 L 538 448 L 539 447 L 540 447 L 541 447 L 542 446 L 543 446 L 544 446 L 545 445 L 546 445 L 547 444 L 548 444 L 549 444 L 550 443 L 551 443 L 552 442 L 553 442 L 554 442 L 555 441 L 556 441 L 557 441 L 558 440 L 559 440 L 560 440 L 561 439 L 562 439 L 563 439 L 564 438 L 565 438 L 566 438 L 567 437 L 568 437 L 569 437 L 570 436 L 571 436 L 572 436 L 573 435 L 574 435 L 575 435 L 576 434 L 577 434 L 578 434 L 579 434 L 580 433 L 581 433 L 582 433 L 583 433 L 584 432 L 585 432 L 586 432 L 587 431 L 588 431 L 589 431 L 590 431 L 591 430 L 592 430 L 593 430 L 594 430 L 595 430 L 596 429 L 597 429 L 598 429 L 599 429 L 600 428 L 601 428 L 602 428 L 603 428 L 604 427 L 605 427 L 606 427 L 607 427 L 608 426 L 609 426 L 610 426 L 611 426 L 612 426 L 613 426 L 614 425 L 615 425 L 616 425 L 617 425 L 618 425 L 619 425 L 620 424 L 621 424 L 622 424 L 623 424 L 624 424 L 625 424 L 626 424 L 627 424 L 628 423 L 629 423 L 630 423 L 631 423 L 632 423 L 633 423 L 634 423 L 635 423 L 636 423 L 637 423 L 638 423 L 639 423 L 640 423 L 641 423 L 642 423 L 643 422 L 644 422 L 643 422 L 642 422 L 641 422 L 640 422 L 639 422 L 638 422 L 637 422 L 636 422 L 635 422 L 634 422 L 633 422 L 632 422 L 631 422 L 630 422 L 629 422 L 628 422 L 627 422 L 626 422 L 625 422 L 624 422 L 623 422 L 622 422 L 621 422 L 620 422 L 619 422 L 618 422 L 617 422 Z" fill="#000000" fill-rule="evenodd"/>
  <path d="M 443 406 L 442 407 L 441 408 L 441 409 L 440 410 L 439 411 L 439 412 L 438 413 L 437 414 L 436 415 L 435 416 L 435 417 L 434 418 L 433 419 L 432 420 L 431 421 L 430 422 L 429 423 L 428 424 L 427 425 L 426 426 L 425 427 L 424 428 L 423 429 L 422 430 L 421 431 L 420 432 L 419 432 L 418 433 L 417 434 L 416 435 L 415 435 L 414 436 L 413 437 L 412 437 L 411 438 L 410 439 L 409 439 L 408 440 L 407 440 L 406 441 L 405 441 L 404 442 L 403 442 L 402 443 L 401 443 L 400 444 L 399 444 L 398 444 L 397 445 L 396 445 L 395 445 L 394 446 L 393 446 L 392 446 L 391 447 L 390 447 L 389 447 L 388 447 L 387 448 L 386 448 L 385 448 L 384 448 L 383 448 L 382 449 L 381 449 L 380 449 L 379 449 L 378 449 L 377 449 L 376 449 L 375 449 L 374 449 L 373 449 L 372 449 L 371 449 L 370 449 L 369 449 L 368 449 L 367 449 L 366 449 L 365 449 L 364 449 L 365 449 L 366 450 L 367 450 L 368 450 L 369 451 L 370 451 L 371 451 L 372 451 L 373 452 L 374 452 L 375 452 L 376 453 L 377 453 L 378 453 L 379 453 L 380 453 L 381 454 L 382 454 L 383 454 L 384 454 L 385 454 L 386 454 L 387 454 L 388 455 L 389 455 L 390 455 L 391 455 L 392 454 L 393 455 L 394 454 L 395 454 L 396 454 L 397 454 L 398 454 L 399 454 L 400 454 L 401 454 L 402 454 L 403 453 L 404 453 L 405 453 L 406 453 L 407 452 L 408 452 L 409 451 L 410 451 L 411 451 L 412 450 L 413 450 L 414 449 L 415 449 L 416 448 L 417 447 L 418 447 L 419 446 L 420 445 L 421 445 L 422 444 L 423 443 L 424 442 L 425 441 L 426 440 L 427 439 L 428 438 L 429 437 L 430 436 L 430 435 L 431 434 L 432 433 L 433 432 L 433 431 L 434 430 L 435 429 L 435 428 L 436 427 L 436 426 L 437 425 L 437 424 L 438 423 L 438 422 L 439 421 L 439 420 L 440 419 L 440 418 L 440 417 L 441 416 L 441 415 L 442 414 L 442 413 L 442 412 L 442 411 L 442 410 L 443 409 L 443 408 L 443 407 L 443 406 Z" fill="#000000" fill-rule="evenodd"/>
  <path d="M 558 475 L 557 476 L 556 476 L 555 476 L 554 476 L 553 476 L 552 476 L 551 476 L 550 476 L 549 476 L 548 476 L 547 476 L 546 476 L 545 476 L 544 476 L 543 476 L 542 476 L 541 476 L 540 476 L 539 476 L 538 476 L 537 476 L 536 477 L 535 477 L 534 477 L 533 477 L 532 477 L 531 477 L 530 477 L 529 477 L 528 477 L 527 478 L 526 478 L 525 478 L 524 478 L 523 478 L 522 478 L 521 478 L 520 479 L 519 479 L 518 479 L 517 479 L 516 479 L 515 479 L 514 480 L 513 480 L 512 480 L 511 480 L 510 480 L 509 481 L 508 481 L 507 481 L 506 481 L 505 481 L 504 482 L 503 482 L 502 482 L 501 482 L 500 482 L 499 483 L 498 483 L 497 483 L 496 483 L 495 484 L 494 484 L 493 484 L 492 485 L 491 485 L 490 485 L 489 485 L 488 486 L 487 486 L 486 486 L 485 487 L 484 487 L 483 487 L 482 488 L 481 488 L 480 488 L 479 489 L 478 489 L 477 489 L 476 490 L 475 490 L 474 491 L 473 491 L 472 491 L 471 492 L 470 492 L 469 492 L 468 493 L 467 493 L 466 494 L 465 494 L 464 495 L 463 495 L 462 495 L 461 496 L 460 496 L 459 497 L 458 497 L 457 498 L 456 498 L 455 498 L 454 499 L 453 500 L 454 499 L 455 499 L 456 499 L 457 499 L 458 498 L 459 498 L 460 498 L 461 497 L 462 497 L 463 497 L 464 497 L 465 496 L 466 496 L 467 496 L 468 495 L 469 495 L 470 495 L 471 495 L 472 494 L 473 494 L 474 494 L 475 494 L 476 493 L 477 493 L 478 493 L 479 493 L 480 492 L 481 492 L 482 492 L 483 492 L 484 491 L 485 491 L 486 491 L 487 491 L 488 490 L 489 490 L 490 490 L 491 490 L 492 489 L 493 489 L 494 489 L 495 489 L 496 489 L 497 488 L 498 488 L 499 488 L 500 488 L 501 488 L 502 487 L 503 487 L 504 487 L 505 487 L 506 487 L 507 486 L 508 486 L 509 486 L 510 486 L 511 486 L 512 486 L 513 486 L 514 485 L 515 485 L 516 485 L 517 485 L 518 485 L 519 484 L 520 484 L 521 484 L 522 484 L 523 484 L 524 484 L 525 484 L 526 483 L 527 483 L 528 483 L 529 483 L 530 483 L 531 483 L 532 483 L 533 483 L 534 483 L 535 482 L 536 482 L 537 482 L 538 482 L 539 482 L 540 482 L 541 482 L 542 482 L 543 482 L 544 481 L 545 481 L 546 481 L 547 481 L 548 481 L 549 481 L 550 481 L 551 481 L 552 481 L 553 481 L 554 481 L 555 481 L 556 481 L 557 481 L 558 481 L 559 480 L 560 480 L 561 480 L 562 480 L 563 480 L 564 480 L 565 480 L 566 480 L 567 480 L 568 480 L 569 480 L 570 480 L 571 480 L 572 480 L 573 480 L 574 480 L 575 480 L 576 480 L 577 481 L 578 481 L 579 481 L 580 481 L 581 481 L 582 481 L 583 481 L 584 481 L 585 481 L 586 481 L 587 481 L 588 481 L 589 481 L 590 481 L 591 481 L 592 481 L 593 482 L 594 482 L 595 482 L 596 482 L 597 482 L 598 482 L 599 482 L 600 482 L 601 482 L 602 483 L 603 483 L 604 483 L 605 483 L 606 483 L 607 483 L 608 483 L 609 484 L 610 484 L 611 484 L 612 484 L 613 484 L 614 484 L 615 485 L 616 485 L 617 485 L 618 485 L 619 485 L 620 485 L 621 486 L 622 486 L 623 486 L 624 486 L 625 487 L 626 487 L 627 487 L 628 487 L 629 487 L 628 487 L 627 486 L 626 486 L 625 486 L 624 485 L 623 485 L 622 485 L 621 484 L 620 484 L 619 484 L 618 484 L 617 483 L 616 483 L 615 483 L 614 482 L 613 482 L 612 482 L 611 482 L 610 482 L 609 481 L 608 481 L 607 481 L 606 481 L 605 480 L 604 480 L 603 480 L 602 480 L 601 479 L 600 479 L 599 479 L 598 479 L 597 479 L 596 479 L 595 478 L 594 478 L 593 478 L 592 478 L 591 478 L 590 478 L 589 477 L 588 477 L 587 477 L 586 477 L 585 477 L 584 477 L 583 477 L 582 477 L 581 477 L 580 476 L 579 476 L 578 476 L 577 476 L 576 476 L 575 476 L 574 476 L 573 476 L 572 476 L 571 476 L 570 476 L 569 476 L 568 476 L 567 476 L 566 476 L 565 476 L 564 476 L 563 476 L 562 476 L 561 475 L 560 475 L 559 475 L 558 475 Z" fill="#000000" fill-rule="evenodd"/>
  <path d="M 479 505 L 478 506 L 477 506 L 476 506 L 475 506 L 474 506 L 473 506 L 472 506 L 471 506 L 470 507 L 469 507 L 468 507 L 467 507 L 466 507 L 465 508 L 464 508 L 463 508 L 462 508 L 461 508 L 460 509 L 459 509 L 458 509 L 457 509 L 456 510 L 455 510 L 454 510 L 453 511 L 454 511 L 455 511 L 456 511 L 457 510 L 458 510 L 459 510 L 460 510 L 461 510 L 462 510 L 463 510 L 464 510 L 465 509 L 466 509 L 467 509 L 468 509 L 469 509 L 470 509 L 471 509 L 472 509 L 473 509 L 474 509 L 475 509 L 476 509 L 477 509 L 478 509 L 479 509 L 480 509 L 481 509 L 482 509 L 483 509 L 484 509 L 485 509 L 486 509 L 487 509 L 488 509 L 489 509 L 490 509 L 491 509 L 492 509 L 493 509 L 494 509 L 495 509 L 496 509 L 497 509 L 498 509 L 499 509 L 500 509 L 501 509 L 502 509 L 503 509 L 504 509 L 505 510 L 506 510 L 507 510 L 508 510 L 509 510 L 510 510 L 511 510 L 512 510 L 513 510 L 514 511 L 515 511 L 516 511 L 517 511 L 518 511 L 519 511 L 520 511 L 521 512 L 522 512 L 523 512 L 524 512 L 525 512 L 526 512 L 527 513 L 528 513 L 529 513 L 530 513 L 531 513 L 532 514 L 533 514 L 534 514 L 535 514 L 536 514 L 537 515 L 538 515 L 539 515 L 540 515 L 541 516 L 542 516 L 543 516 L 544 516 L 545 517 L 546 517 L 547 517 L 548 517 L 549 518 L 550 518 L 551 518 L 552 519 L 553 519 L 554 519 L 555 519 L 556 520 L 557 520 L 558 520 L 559 521 L 560 521 L 561 521 L 562 521 L 563 522 L 564 522 L 565 522 L 566 523 L 567 523 L 568 523 L 569 524 L 570 524 L 571 524 L 572 525 L 573 525 L 574 526 L 575 526 L 576 526 L 577 526 L 578 527 L 579 527 L 580 528 L 581 528 L 582 528 L 583 529 L 584 529 L 585 529 L 586 530 L 587 530 L 588 531 L 589 531 L 590 531 L 591 532 L 592 532 L 593 533 L 594 533 L 595 534 L 596 534 L 597 535 L 598 535 L 599 536 L 600 536 L 601 536 L 602 537 L 603 537 L 604 538 L 605 538 L 606 539 L 607 539 L 606 538 L 605 538 L 604 537 L 603 536 L 602 536 L 601 535 L 600 535 L 599 534 L 598 534 L 597 533 L 596 532 L 595 532 L 594 531 L 593 531 L 592 530 L 591 530 L 590 529 L 589 529 L 588 528 L 587 527 L 586 527 L 585 527 L 584 526 L 583 526 L 582 525 L 581 525 L 580 524 L 579 524 L 578 523 L 577 523 L 576 523 L 575 522 L 574 522 L 573 521 L 572 521 L 571 521 L 570 520 L 569 520 L 568 519 L 567 519 L 566 518 L 565 518 L 564 518 L 563 517 L 562 517 L 561 517 L 560 516 L 559 516 L 558 516 L 557 515 L 556 515 L 555 514 L 554 514 L 553 514 L 552 514 L 551 513 L 550 513 L 549 513 L 548 512 L 547 512 L 546 512 L 545 512 L 544 511 L 543 511 L 542 511 L 541 511 L 540 510 L 539 510 L 538 510 L 537 510 L 536 509 L 535 509 L 534 509 L 533 509 L 532 508 L 531 508 L 530 508 L 529 508 L 528 508 L 527 507 L 526 507 L 525 507 L 524 507 L 523 507 L 522 507 L 521 506 L 520 506 L 519 506 L 518 506 L 517 506 L 516 506 L 515 506 L 514 505 L 513 505 L 512 505 L 511 505 L 510 505 L 509 505 L 508 505 L 507 505 L 506 505 L 505 505 L 504 505 L 503 505 L 502 505 L 501 505 L 500 505 L 499 505 L 498 505 L 497 505 L 496 505 L 495 505 L 494 505 L 493 505 L 492 505 L 491 505 L 490 505 L 489 505 L 488 505 L 487 505 L 486 505 L 485 505 L 484 505 L 483 505 L 482 505 L 481 505 L 480 505 L 479 505 Z" fill="#000000" fill-rule="evenodd"/>
</svg>