<?xml version="1.0" encoding="UTF-8"?>
<svg xmlns="http://www.w3.org/2000/svg" width="2080" height="607" viewBox="0 0 2080 607" role="img" aria-label="Nekomin logo">
  <path d="M 964 474 L 963 475 L 932 475 L 931 476 L 908 476 L 907 477 L 886 477 L 885 478 L 870 478 L 869 479 L 856 479 L 855 480 L 842 480 L 841 481 L 829 481 L 828 482 L 817 482 L 816 483 L 806 483 L 805 484 L 795 484 L 794 485 L 785 485 L 784 486 L 776 486 L 775 487 L 766 487 L 765 488 L 757 488 L 756 489 L 748 489 L 747 490 L 740 490 L 739 491 L 732 491 L 731 492 L 724 492 L 723 493 L 717 493 L 716 494 L 709 494 L 708 495 L 703 495 L 702 496 L 697 496 L 696 497 L 690 497 L 689 498 L 684 498 L 683 499 L 677 499 L 676 500 L 671 500 L 670 501 L 666 501 L 665 502 L 660 502 L 659 503 L 654 503 L 653 504 L 648 504 L 647 505 L 642 505 L 641 506 L 637 506 L 636 507 L 632 507 L 631 508 L 626 508 L 625 509 L 621 509 L 620 510 L 616 510 L 615 511 L 611 511 L 610 512 L 606 512 L 605 513 L 601 513 L 600 514 L 596 514 L 595 515 L 592 515 L 591 516 L 587 516 L 586 517 L 582 517 L 581 518 L 578 518 L 577 519 L 574 519 L 573 520 L 570 520 L 569 521 L 565 521 L 564 522 L 561 522 L 560 523 L 556 523 L 555 524 L 552 524 L 551 525 L 548 525 L 547 526 L 544 526 L 543 527 L 541 527 L 540 528 L 537 528 L 536 529 L 533 529 L 532 530 L 530 530 L 529 531 L 526 531 L 525 532 L 522 532 L 521 533 L 519 533 L 518 534 L 516 534 L 515 535 L 512 535 L 511 536 L 509 536 L 508 537 L 505 537 L 504 538 L 502 538 L 501 539 L 499 539 L 498 540 L 495 540 L 494 541 L 492 541 L 491 542 L 489 542 L 488 543 L 486 543 L 485 544 L 483 544 L 482 545 L 480 545 L 479 546 L 477 546 L 476 547 L 473 547 L 472 548 L 471 548 L 470 549 L 468 549 L 467 550 L 465 550 L 464 551 L 462 551 L 461 552 L 459 552 L 458 553 L 456 553 L 455 554 L 453 554 L 452 555 L 451 555 L 450 556 L 448 556 L 447 557 L 445 557 L 444 558 L 443 558 L 442 559 L 440 559 L 439 560 L 437 560 L 436 561 L 435 561 L 434 562 L 432 562 L 431 563 L 429 563 L 428 564 L 427 564 L 426 565 L 424 565 L 423 566 L 422 566 L 421 567 L 420 567 L 419 568 L 417 568 L 416 569 L 415 569 L 414 570 L 412 570 L 411 571 L 410 571 L 409 572 L 408 572 L 407 573 L 405 573 L 404 574 L 403 574 L 402 575 L 401 575 L 400 576 L 399 576 L 398 577 L 397 577 L 396 578 L 395 578 L 394 579 L 392 579 L 391 580 L 390 580 L 389 581 L 388 581 L 387 582 L 386 582 L 385 583 L 384 583 L 383 584 L 382 584 L 381 585 L 380 585 L 379 586 L 378 586 L 380 586 L 381 585 L 383 585 L 384 584 L 386 584 L 387 583 L 390 583 L 391 582 L 393 582 L 394 581 L 396 581 L 397 580 L 398 580 L 399 579 L 401 579 L 402 578 L 405 578 L 406 577 L 408 577 L 409 576 L 411 576 L 412 575 L 414 575 L 415 574 L 417 574 L 418 573 L 420 573 L 421 572 L 424 572 L 425 571 L 427 571 L 428 570 L 431 570 L 432 569 L 434 569 L 435 568 L 437 568 L 438 567 L 441 567 L 442 566 L 444 566 L 445 565 L 448 565 L 449 564 L 451 564 L 452 563 L 455 563 L 456 562 L 458 562 L 459 561 L 462 561 L 463 560 L 465 560 L 466 559 L 469 559 L 470 558 L 473 558 L 474 557 L 477 557 L 478 556 L 481 556 L 482 555 L 485 555 L 486 554 L 489 554 L 490 553 L 493 553 L 494 552 L 497 552 L 498 551 L 501 551 L 502 550 L 505 550 L 506 549 L 509 549 L 510 548 L 513 548 L 514 547 L 517 547 L 518 546 L 521 546 L 522 545 L 526 545 L 527 544 L 530 544 L 531 543 L 534 543 L 535 542 L 538 542 L 539 541 L 542 541 L 543 540 L 547 540 L 548 539 L 552 539 L 553 538 L 557 538 L 558 537 L 562 537 L 563 536 L 566 536 L 567 535 L 571 535 L 572 534 L 575 534 L 576 533 L 580 533 L 581 532 L 585 532 L 586 531 L 590 531 L 591 530 L 595 530 L 596 529 L 600 529 L 601 528 L 606 528 L 607 527 L 612 527 L 613 526 L 617 526 L 618 525 L 622 525 L 623 524 L 628 524 L 629 523 L 634 523 L 635 522 L 640 522 L 641 521 L 646 521 L 647 520 L 652 520 L 653 519 L 658 519 L 659 518 L 663 518 L 664 517 L 669 517 L 670 516 L 676 516 L 677 515 L 682 515 L 683 514 L 689 514 L 690 513 L 696 513 L 697 512 L 703 512 L 704 511 L 710 511 L 711 510 L 717 510 L 718 509 L 725 509 L 726 508 L 732 508 L 733 507 L 741 507 L 742 506 L 748 506 L 749 505 L 758 505 L 759 504 L 766 504 L 767 503 L 775 503 L 776 502 L 784 502 L 785 501 L 794 501 L 795 500 L 805 500 L 806 499 L 815 499 L 816 498 L 826 498 L 827 497 L 839 497 L 840 496 L 852 496 L 853 495 L 865 495 L 866 494 L 879 494 L 880 493 L 896 493 L 897 492 L 916 492 L 917 491 L 940 491 L 941 490 L 971 490 L 972 489 L 1013 489 L 1014 488 L 1077 488 L 1078 489 L 1134 489 L 1135 490 L 1162 490 L 1163 491 L 1191 491 L 1192 492 L 1209 492 L 1210 493 L 1226 493 L 1227 494 L 1242 494 L 1243 495 L 1256 495 L 1257 496 L 1269 496 L 1270 497 L 1281 497 L 1282 498 L 1293 498 L 1294 499 L 1306 499 L 1307 500 L 1318 500 L 1319 501 L 1329 501 L 1330 502 L 1340 502 L 1341 503 L 1350 503 L 1351 504 L 1361 504 L 1362 505 L 1372 505 L 1373 506 L 1381 506 L 1382 507 L 1391 507 L 1392 508 L 1400 508 L 1401 509 L 1408 509 L 1409 510 L 1417 510 L 1418 511 L 1426 511 L 1427 512 L 1434 512 L 1435 513 L 1441 513 L 1442 514 L 1449 514 L 1450 515 L 1457 515 L 1458 516 L 1465 516 L 1466 517 L 1473 517 L 1474 518 L 1480 518 L 1481 519 L 1487 519 L 1488 520 L 1495 520 L 1496 521 L 1503 521 L 1504 522 L 1510 522 L 1511 523 L 1516 523 L 1517 524 L 1523 524 L 1524 525 L 1530 525 L 1531 526 L 1536 526 L 1537 527 L 1542 527 L 1543 528 L 1548 528 L 1549 529 L 1554 529 L 1555 530 L 1560 530 L 1561 531 L 1566 531 L 1567 532 L 1573 532 L 1574 533 L 1579 533 L 1580 534 L 1586 534 L 1587 535 L 1592 535 L 1593 536 L 1598 536 L 1599 537 L 1604 537 L 1605 538 L 1610 538 L 1611 539 L 1616 539 L 1617 540 L 1622 540 L 1623 541 L 1629 541 L 1630 542 L 1634 542 L 1635 543 L 1640 543 L 1641 544 L 1645 544 L 1646 545 L 1651 545 L 1652 546 L 1656 546 L 1654 546 L 1653 545 L 1651 545 L 1650 544 L 1646 544 L 1645 543 L 1642 543 L 1641 542 L 1637 542 L 1636 541 L 1632 541 L 1631 540 L 1628 540 L 1627 539 L 1624 539 L 1623 538 L 1619 538 L 1618 537 L 1614 537 L 1613 536 L 1609 536 L 1608 535 L 1604 535 L 1603 534 L 1600 534 L 1599 533 L 1595 533 L 1594 532 L 1590 532 L 1589 531 L 1585 531 L 1584 530 L 1579 530 L 1578 529 L 1574 529 L 1573 528 L 1570 528 L 1569 527 L 1564 527 L 1563 526 L 1560 526 L 1559 525 L 1555 525 L 1554 524 L 1549 524 L 1548 523 L 1544 523 L 1543 522 L 1539 522 L 1538 521 L 1533 521 L 1532 520 L 1528 520 L 1527 519 L 1523 519 L 1522 518 L 1517 518 L 1516 517 L 1512 517 L 1511 516 L 1507 516 L 1506 515 L 1501 515 L 1500 514 L 1495 514 L 1494 513 L 1489 513 L 1488 512 L 1483 512 L 1482 511 L 1478 511 L 1477 510 L 1472 510 L 1471 509 L 1466 509 L 1465 508 L 1459 508 L 1458 507 L 1452 507 L 1451 506 L 1446 506 L 1445 505 L 1440 505 L 1439 504 L 1433 504 L 1432 503 L 1426 503 L 1425 502 L 1419 502 L 1418 501 L 1412 501 L 1411 500 L 1405 500 L 1404 499 L 1398 499 L 1397 498 L 1390 498 L 1389 497 L 1383 497 L 1382 496 L 1375 496 L 1374 495 L 1367 495 L 1366 494 L 1359 494 L 1358 493 L 1350 493 L 1349 492 L 1341 492 L 1340 491 L 1332 491 L 1331 490 L 1322 490 L 1321 489 L 1313 489 L 1312 488 L 1302 488 L 1301 487 L 1292 487 L 1291 486 L 1282 486 L 1281 485 L 1270 485 L 1269 484 L 1259 484 L 1258 483 L 1246 483 L 1245 482 L 1232 482 L 1231 481 L 1218 481 L 1217 480 L 1203 480 L 1202 479 L 1188 479 L 1187 478 L 1168 478 L 1167 477 L 1149 477 L 1148 476 L 1125 476 L 1124 475 L 1095 475 L 1094 474 Z" fill="#000000" fill-rule="evenodd"/>
  <path d="M 1618 185 L 1617 186 L 1615 186 L 1614 187 L 1612 187 L 1611 188 L 1610 188 L 1609 189 L 1608 189 L 1606 191 L 1605 191 L 1596 200 L 1596 201 L 1595 202 L 1595 203 L 1593 205 L 1593 207 L 1592 208 L 1592 210 L 1591 211 L 1591 221 L 1592 222 L 1592 224 L 1593 225 L 1593 226 L 1594 227 L 1594 228 L 1599 233 L 1600 233 L 1601 234 L 1602 234 L 1603 235 L 1604 235 L 1605 236 L 1609 236 L 1610 237 L 1614 237 L 1615 236 L 1619 236 L 1620 235 L 1622 235 L 1623 234 L 1625 234 L 1626 233 L 1627 233 L 1629 231 L 1630 231 L 1632 229 L 1633 229 L 1639 223 L 1639 222 L 1641 220 L 1641 219 L 1642 218 L 1642 217 L 1643 216 L 1643 214 L 1644 213 L 1644 211 L 1645 210 L 1645 201 L 1644 200 L 1644 198 L 1643 197 L 1643 196 L 1642 195 L 1642 194 L 1636 188 L 1635 188 L 1634 187 L 1633 187 L 1632 186 L 1629 186 L 1628 185 Z" fill="#000000" fill-rule="evenodd"/>
  <path d="M 991 107 L 990 108 L 984 108 L 983 109 L 980 109 L 979 110 L 976 110 L 975 111 L 973 111 L 972 112 L 970 112 L 969 113 L 967 113 L 966 114 L 965 114 L 964 115 L 963 115 L 962 116 L 961 116 L 960 117 L 959 117 L 958 118 L 957 118 L 956 119 L 955 119 L 954 120 L 953 120 L 951 122 L 950 122 L 949 123 L 948 123 L 946 125 L 945 125 L 943 127 L 942 127 L 940 129 L 939 129 L 936 132 L 935 132 L 932 135 L 931 135 L 928 138 L 927 138 L 923 142 L 922 142 L 916 148 L 915 148 L 900 163 L 899 163 L 899 164 L 897 166 L 896 166 L 887 175 L 887 176 L 875 188 L 875 189 L 867 197 L 867 198 L 861 204 L 861 205 L 856 210 L 856 211 L 851 216 L 851 217 L 847 221 L 847 222 L 843 226 L 843 227 L 839 231 L 839 232 L 836 235 L 836 236 L 833 239 L 833 240 L 830 243 L 830 244 L 827 247 L 827 248 L 824 251 L 824 252 L 821 255 L 821 256 L 819 258 L 819 259 L 816 262 L 816 263 L 814 265 L 814 266 L 811 269 L 811 270 L 808 273 L 808 274 L 806 276 L 806 277 L 803 280 L 803 281 L 801 283 L 801 284 L 799 286 L 799 287 L 797 289 L 797 290 L 795 292 L 795 293 L 793 295 L 793 296 L 791 298 L 791 299 L 789 301 L 789 302 L 787 304 L 787 305 L 785 307 L 785 308 L 784 309 L 784 310 L 782 312 L 782 313 L 780 315 L 780 316 L 779 317 L 779 318 L 777 320 L 777 321 L 775 323 L 775 324 L 774 325 L 774 326 L 772 328 L 772 329 L 770 331 L 770 332 L 769 333 L 769 334 L 768 335 L 768 336 L 763 341 L 763 342 L 728 377 L 727 377 L 718 386 L 717 386 L 712 391 L 711 391 L 707 395 L 706 395 L 703 398 L 702 398 L 699 401 L 698 401 L 696 403 L 695 403 L 692 406 L 691 406 L 689 408 L 688 408 L 687 409 L 686 409 L 684 411 L 683 411 L 682 412 L 681 412 L 679 414 L 678 414 L 677 415 L 676 415 L 674 417 L 673 417 L 672 418 L 671 418 L 670 419 L 669 419 L 668 420 L 667 420 L 666 421 L 664 421 L 663 422 L 662 422 L 661 423 L 659 423 L 658 424 L 657 424 L 656 425 L 654 425 L 653 426 L 651 426 L 650 427 L 647 427 L 646 428 L 643 428 L 642 429 L 638 429 L 637 430 L 622 430 L 621 429 L 619 429 L 618 428 L 616 428 L 615 427 L 614 427 L 613 426 L 612 426 L 607 421 L 607 420 L 605 418 L 605 417 L 604 416 L 604 414 L 603 413 L 603 410 L 602 409 L 602 399 L 603 398 L 603 393 L 604 392 L 604 389 L 605 388 L 605 386 L 606 385 L 606 382 L 607 381 L 607 379 L 608 378 L 608 377 L 609 376 L 609 374 L 610 373 L 610 372 L 611 371 L 611 370 L 612 369 L 612 368 L 614 366 L 619 366 L 620 365 L 631 365 L 632 364 L 637 364 L 638 363 L 642 363 L 643 362 L 647 362 L 648 361 L 651 361 L 652 360 L 655 360 L 656 359 L 659 359 L 660 358 L 663 358 L 664 357 L 666 357 L 667 356 L 669 356 L 670 355 L 672 355 L 673 354 L 674 354 L 675 353 L 677 353 L 678 352 L 680 352 L 681 351 L 682 351 L 683 350 L 684 350 L 685 349 L 687 349 L 688 348 L 689 348 L 690 347 L 691 347 L 692 346 L 693 346 L 694 345 L 695 345 L 696 344 L 697 344 L 699 342 L 700 342 L 701 341 L 702 341 L 704 339 L 705 339 L 707 337 L 708 337 L 711 334 L 712 334 L 718 328 L 719 328 L 723 324 L 723 323 L 727 319 L 727 318 L 729 316 L 729 315 L 731 313 L 731 312 L 732 311 L 732 310 L 733 309 L 733 308 L 734 307 L 734 305 L 735 304 L 735 301 L 736 300 L 736 287 L 735 286 L 735 283 L 734 282 L 734 281 L 732 279 L 732 278 L 726 272 L 725 272 L 723 270 L 722 270 L 721 269 L 720 269 L 719 268 L 717 268 L 716 267 L 713 267 L 712 266 L 708 266 L 707 265 L 700 265 L 699 264 L 686 264 L 685 265 L 678 265 L 677 266 L 672 266 L 671 267 L 668 267 L 667 268 L 664 268 L 663 269 L 660 269 L 659 270 L 658 270 L 657 271 L 655 271 L 654 272 L 652 272 L 651 273 L 650 273 L 649 274 L 648 274 L 647 275 L 645 275 L 644 276 L 643 276 L 642 277 L 641 277 L 639 279 L 638 279 L 637 280 L 636 280 L 635 281 L 634 281 L 633 282 L 632 282 L 631 283 L 630 283 L 628 285 L 627 285 L 625 287 L 624 287 L 622 289 L 621 289 L 618 292 L 617 292 L 614 295 L 613 295 L 610 298 L 609 298 L 588 319 L 588 320 L 583 325 L 583 326 L 580 329 L 580 330 L 578 332 L 578 333 L 576 335 L 576 336 L 574 338 L 574 339 L 572 341 L 572 342 L 571 343 L 571 344 L 569 346 L 569 347 L 568 348 L 568 349 L 567 350 L 567 351 L 566 352 L 566 353 L 564 355 L 564 356 L 563 357 L 563 358 L 562 359 L 562 361 L 561 362 L 561 363 L 560 364 L 560 366 L 559 367 L 559 368 L 558 369 L 558 371 L 557 372 L 557 374 L 556 375 L 556 378 L 555 379 L 555 382 L 554 383 L 554 387 L 553 388 L 553 393 L 552 394 L 552 405 L 553 406 L 553 411 L 554 412 L 554 415 L 555 416 L 555 418 L 556 419 L 556 420 L 557 421 L 557 422 L 558 423 L 558 424 L 559 425 L 559 426 L 561 428 L 561 429 L 564 432 L 564 433 L 566 435 L 567 435 L 571 439 L 572 439 L 574 441 L 575 441 L 576 442 L 577 442 L 578 443 L 579 443 L 580 444 L 582 444 L 583 445 L 585 445 L 586 446 L 588 446 L 589 447 L 593 447 L 594 448 L 599 448 L 600 449 L 620 449 L 621 448 L 628 448 L 629 447 L 633 447 L 634 446 L 637 446 L 638 445 L 641 445 L 642 444 L 645 444 L 646 443 L 648 443 L 649 442 L 650 442 L 651 441 L 653 441 L 654 440 L 656 440 L 657 439 L 658 439 L 659 438 L 661 438 L 662 437 L 663 437 L 664 436 L 665 436 L 666 435 L 667 435 L 668 434 L 669 434 L 670 433 L 671 433 L 672 432 L 673 432 L 675 430 L 676 430 L 677 429 L 678 429 L 679 428 L 680 428 L 682 426 L 683 426 L 685 424 L 686 424 L 687 423 L 688 423 L 690 421 L 691 421 L 694 418 L 695 418 L 697 416 L 698 416 L 702 412 L 703 412 L 707 408 L 708 408 L 713 403 L 714 403 L 720 397 L 721 397 L 733 385 L 734 385 L 743 376 L 744 377 L 744 378 L 743 379 L 743 380 L 742 381 L 742 382 L 741 383 L 741 384 L 740 385 L 740 386 L 739 387 L 739 388 L 738 389 L 738 390 L 737 391 L 737 392 L 736 393 L 736 394 L 735 395 L 735 396 L 734 397 L 734 399 L 733 400 L 733 401 L 732 402 L 732 403 L 731 404 L 731 405 L 730 406 L 730 407 L 729 408 L 729 410 L 728 411 L 728 412 L 727 413 L 727 414 L 726 415 L 726 416 L 725 417 L 725 418 L 724 419 L 724 421 L 723 422 L 723 423 L 722 424 L 722 426 L 721 427 L 721 435 L 722 436 L 722 437 L 724 439 L 725 439 L 727 441 L 728 441 L 729 442 L 730 442 L 731 443 L 733 443 L 734 444 L 752 444 L 753 443 L 757 443 L 758 442 L 760 442 L 763 439 L 763 438 L 764 437 L 764 436 L 766 434 L 766 433 L 767 432 L 767 431 L 769 429 L 769 428 L 771 426 L 771 425 L 773 423 L 773 422 L 775 420 L 775 419 L 777 417 L 777 416 L 779 414 L 779 413 L 781 411 L 781 410 L 784 407 L 784 406 L 786 404 L 786 403 L 788 401 L 788 400 L 791 397 L 791 396 L 794 393 L 794 392 L 797 389 L 797 388 L 801 384 L 801 383 L 804 380 L 804 379 L 807 376 L 807 375 L 811 371 L 811 370 L 816 365 L 816 364 L 818 362 L 819 362 L 820 363 L 820 372 L 821 373 L 821 381 L 822 382 L 822 388 L 823 389 L 823 394 L 824 395 L 824 399 L 825 400 L 825 403 L 826 404 L 826 407 L 827 408 L 827 410 L 828 411 L 828 413 L 829 414 L 829 416 L 830 417 L 830 418 L 831 419 L 831 420 L 832 421 L 832 422 L 833 423 L 833 424 L 835 426 L 835 427 L 837 429 L 837 430 L 838 431 L 839 431 L 840 432 L 840 433 L 841 434 L 842 434 L 845 437 L 846 437 L 847 438 L 848 438 L 849 439 L 850 439 L 851 440 L 852 440 L 853 441 L 854 441 L 855 442 L 857 442 L 858 443 L 861 443 L 862 444 L 868 444 L 869 445 L 877 445 L 878 444 L 886 444 L 887 443 L 891 443 L 892 442 L 894 442 L 895 441 L 898 441 L 899 440 L 901 440 L 902 439 L 904 439 L 905 438 L 906 438 L 907 437 L 909 437 L 910 436 L 911 436 L 912 435 L 913 435 L 914 434 L 915 434 L 916 433 L 917 433 L 918 432 L 919 432 L 920 431 L 921 431 L 923 429 L 924 429 L 925 428 L 926 428 L 928 426 L 929 426 L 931 424 L 932 424 L 934 422 L 935 422 L 937 420 L 938 420 L 942 416 L 943 416 L 946 413 L 947 413 L 952 408 L 953 408 L 960 401 L 961 401 L 973 389 L 974 389 L 984 379 L 985 380 L 985 383 L 984 384 L 984 387 L 983 388 L 983 392 L 982 393 L 982 405 L 983 406 L 983 411 L 984 412 L 984 415 L 985 416 L 985 417 L 986 418 L 986 420 L 987 421 L 987 422 L 988 423 L 988 424 L 990 426 L 990 427 L 997 434 L 998 434 L 1000 436 L 1001 436 L 1003 438 L 1004 438 L 1005 439 L 1006 439 L 1007 440 L 1008 440 L 1009 441 L 1011 441 L 1012 442 L 1015 442 L 1016 443 L 1019 443 L 1020 444 L 1027 444 L 1028 445 L 1036 445 L 1037 444 L 1046 444 L 1047 443 L 1052 443 L 1053 442 L 1056 442 L 1057 441 L 1060 441 L 1061 440 L 1063 440 L 1064 439 L 1066 439 L 1067 438 L 1069 438 L 1070 437 L 1071 437 L 1072 436 L 1073 436 L 1074 435 L 1075 435 L 1076 434 L 1077 434 L 1078 433 L 1079 433 L 1080 432 L 1081 432 L 1082 431 L 1083 431 L 1084 430 L 1085 430 L 1087 428 L 1088 428 L 1089 427 L 1090 427 L 1092 425 L 1093 425 L 1095 423 L 1096 423 L 1100 419 L 1101 419 L 1105 415 L 1106 415 L 1125 396 L 1125 395 L 1131 389 L 1131 388 L 1134 385 L 1134 384 L 1137 381 L 1137 380 L 1139 378 L 1139 377 L 1141 375 L 1141 374 L 1143 372 L 1143 371 L 1145 369 L 1145 368 L 1147 366 L 1147 365 L 1148 364 L 1148 363 L 1149 362 L 1149 361 L 1152 358 L 1158 358 L 1159 357 L 1163 357 L 1164 356 L 1166 356 L 1167 355 L 1170 355 L 1171 354 L 1173 354 L 1174 353 L 1176 353 L 1177 352 L 1178 352 L 1179 351 L 1181 351 L 1182 350 L 1183 350 L 1184 349 L 1185 349 L 1186 348 L 1188 348 L 1189 347 L 1190 347 L 1191 346 L 1192 346 L 1193 345 L 1194 345 L 1195 344 L 1196 344 L 1197 343 L 1198 343 L 1199 342 L 1200 342 L 1202 340 L 1203 340 L 1204 339 L 1205 339 L 1207 337 L 1208 337 L 1210 335 L 1211 335 L 1213 333 L 1214 333 L 1216 331 L 1217 331 L 1220 328 L 1221 328 L 1224 325 L 1225 325 L 1228 322 L 1229 323 L 1229 324 L 1227 326 L 1227 327 L 1225 329 L 1225 330 L 1223 332 L 1223 333 L 1221 335 L 1221 336 L 1220 337 L 1220 338 L 1218 340 L 1218 341 L 1216 343 L 1216 344 L 1213 347 L 1213 348 L 1212 349 L 1212 350 L 1210 352 L 1210 353 L 1208 355 L 1208 356 L 1205 359 L 1205 360 L 1204 361 L 1204 362 L 1202 364 L 1202 365 L 1200 367 L 1200 368 L 1199 369 L 1199 370 L 1197 372 L 1197 373 L 1195 375 L 1195 376 L 1193 378 L 1193 379 L 1191 381 L 1191 382 L 1189 384 L 1189 385 L 1188 386 L 1188 387 L 1186 389 L 1186 390 L 1184 392 L 1184 393 L 1182 395 L 1182 396 L 1181 397 L 1181 398 L 1179 400 L 1179 401 L 1178 402 L 1178 403 L 1176 405 L 1176 406 L 1175 407 L 1175 408 L 1173 410 L 1173 411 L 1172 412 L 1172 413 L 1171 414 L 1171 415 L 1170 416 L 1170 417 L 1169 418 L 1169 419 L 1168 420 L 1168 421 L 1167 422 L 1167 424 L 1166 425 L 1166 427 L 1165 428 L 1165 433 L 1167 435 L 1167 436 L 1168 437 L 1169 437 L 1171 439 L 1172 439 L 1173 440 L 1174 440 L 1175 441 L 1177 441 L 1178 442 L 1182 442 L 1183 443 L 1191 443 L 1192 442 L 1197 442 L 1198 441 L 1201 441 L 1202 440 L 1203 440 L 1203 439 L 1205 437 L 1205 436 L 1207 434 L 1207 433 L 1209 431 L 1209 430 L 1211 428 L 1211 427 L 1213 425 L 1213 424 L 1215 422 L 1215 421 L 1217 419 L 1217 418 L 1219 416 L 1219 415 L 1221 413 L 1221 412 L 1223 410 L 1223 409 L 1225 407 L 1225 406 L 1228 403 L 1228 402 L 1229 401 L 1229 400 L 1232 397 L 1232 396 L 1234 394 L 1234 393 L 1237 390 L 1237 389 L 1239 387 L 1239 386 L 1242 383 L 1242 382 L 1245 379 L 1245 378 L 1249 374 L 1249 373 L 1252 370 L 1252 369 L 1256 365 L 1256 364 L 1260 360 L 1260 359 L 1263 356 L 1263 355 L 1267 351 L 1267 350 L 1271 346 L 1271 345 L 1276 340 L 1276 339 L 1281 334 L 1281 333 L 1308 306 L 1309 306 L 1313 302 L 1314 302 L 1317 299 L 1318 299 L 1320 297 L 1321 297 L 1323 295 L 1324 295 L 1325 294 L 1326 294 L 1328 292 L 1330 292 L 1331 291 L 1332 291 L 1333 290 L 1335 290 L 1336 289 L 1339 289 L 1342 292 L 1342 297 L 1341 298 L 1341 300 L 1340 301 L 1340 303 L 1338 305 L 1338 306 L 1337 307 L 1337 308 L 1335 310 L 1335 311 L 1334 312 L 1334 313 L 1333 314 L 1333 315 L 1331 317 L 1331 318 L 1330 319 L 1330 320 L 1328 322 L 1328 323 L 1326 325 L 1326 326 L 1324 328 L 1324 329 L 1323 330 L 1323 331 L 1321 333 L 1321 334 L 1319 336 L 1319 337 L 1317 339 L 1317 340 L 1316 341 L 1316 342 L 1314 344 L 1314 345 L 1312 347 L 1312 348 L 1311 349 L 1311 350 L 1309 352 L 1309 353 L 1307 355 L 1307 356 L 1305 358 L 1305 359 L 1303 361 L 1303 362 L 1302 363 L 1302 364 L 1301 365 L 1301 366 L 1299 368 L 1299 369 L 1297 371 L 1297 372 L 1295 374 L 1295 375 L 1294 376 L 1294 377 L 1292 379 L 1292 380 L 1290 382 L 1290 383 L 1288 385 L 1288 386 L 1287 387 L 1287 388 L 1285 390 L 1285 391 L 1284 392 L 1284 393 L 1283 394 L 1283 395 L 1281 397 L 1281 398 L 1280 399 L 1280 400 L 1278 402 L 1278 403 L 1277 404 L 1277 405 L 1276 406 L 1276 407 L 1275 408 L 1275 409 L 1274 410 L 1274 411 L 1273 412 L 1273 413 L 1272 414 L 1272 416 L 1271 417 L 1271 419 L 1270 420 L 1270 427 L 1271 428 L 1271 431 L 1273 433 L 1273 434 L 1277 438 L 1278 438 L 1279 439 L 1280 439 L 1281 440 L 1282 440 L 1283 441 L 1285 441 L 1286 442 L 1302 442 L 1303 441 L 1304 441 L 1305 440 L 1305 439 L 1306 438 L 1306 437 L 1307 436 L 1307 435 L 1309 433 L 1309 432 L 1310 431 L 1310 430 L 1311 429 L 1311 428 L 1313 426 L 1313 425 L 1314 424 L 1314 423 L 1315 422 L 1315 421 L 1317 419 L 1317 418 L 1318 417 L 1318 416 L 1320 414 L 1320 413 L 1321 412 L 1321 411 L 1323 409 L 1323 408 L 1324 407 L 1324 406 L 1326 404 L 1326 403 L 1327 402 L 1327 401 L 1329 399 L 1329 398 L 1331 396 L 1331 395 L 1333 393 L 1333 392 L 1334 391 L 1334 390 L 1336 388 L 1336 387 L 1338 385 L 1338 384 L 1339 383 L 1339 382 L 1341 380 L 1341 379 L 1343 377 L 1343 376 L 1345 374 L 1345 373 L 1346 372 L 1346 371 L 1348 369 L 1348 368 L 1350 366 L 1350 365 L 1352 363 L 1352 362 L 1355 359 L 1355 358 L 1358 355 L 1358 354 L 1361 351 L 1361 350 L 1364 347 L 1364 346 L 1367 343 L 1367 342 L 1372 337 L 1372 336 L 1380 328 L 1380 327 L 1398 309 L 1399 309 L 1406 302 L 1407 302 L 1410 299 L 1411 299 L 1413 297 L 1414 297 L 1416 295 L 1417 295 L 1418 294 L 1419 294 L 1420 293 L 1421 293 L 1422 292 L 1423 292 L 1424 291 L 1425 291 L 1426 290 L 1429 290 L 1430 289 L 1434 289 L 1437 292 L 1437 299 L 1436 300 L 1436 301 L 1435 302 L 1435 303 L 1434 304 L 1434 305 L 1432 307 L 1432 308 L 1430 310 L 1430 311 L 1429 312 L 1429 313 L 1427 315 L 1427 316 L 1424 319 L 1424 320 L 1422 322 L 1422 323 L 1420 325 L 1420 326 L 1417 329 L 1417 330 L 1415 332 L 1415 333 L 1413 335 L 1413 336 L 1411 338 L 1411 339 L 1408 342 L 1408 343 L 1406 345 L 1406 346 L 1404 348 L 1404 349 L 1401 352 L 1401 353 L 1399 355 L 1399 356 L 1398 357 L 1398 358 L 1396 360 L 1396 361 L 1394 363 L 1394 364 L 1392 366 L 1392 367 L 1390 369 L 1390 370 L 1389 371 L 1389 372 L 1387 374 L 1387 375 L 1385 377 L 1385 378 L 1384 379 L 1384 380 L 1382 382 L 1382 383 L 1381 384 L 1381 385 L 1380 386 L 1380 387 L 1378 389 L 1378 390 L 1377 391 L 1377 392 L 1376 393 L 1376 395 L 1375 396 L 1375 397 L 1374 398 L 1374 399 L 1373 400 L 1373 402 L 1372 403 L 1372 405 L 1371 406 L 1371 409 L 1370 410 L 1370 414 L 1369 415 L 1369 422 L 1370 423 L 1370 426 L 1371 427 L 1371 429 L 1372 430 L 1372 431 L 1373 432 L 1373 433 L 1379 439 L 1380 439 L 1381 440 L 1382 440 L 1383 441 L 1384 441 L 1385 442 L 1387 442 L 1388 443 L 1405 443 L 1406 442 L 1409 442 L 1410 441 L 1413 441 L 1414 440 L 1416 440 L 1417 439 L 1419 439 L 1420 438 L 1421 438 L 1422 437 L 1424 437 L 1425 436 L 1426 436 L 1427 435 L 1428 435 L 1429 434 L 1430 434 L 1431 433 L 1432 433 L 1433 432 L 1434 432 L 1436 430 L 1437 430 L 1438 429 L 1439 429 L 1441 427 L 1442 427 L 1444 425 L 1445 425 L 1447 423 L 1448 423 L 1450 421 L 1451 421 L 1453 419 L 1454 419 L 1458 415 L 1459 415 L 1462 412 L 1463 412 L 1467 408 L 1468 408 L 1475 401 L 1476 401 L 1485 392 L 1486 392 L 1490 388 L 1491 389 L 1491 391 L 1490 392 L 1490 393 L 1489 394 L 1489 395 L 1488 396 L 1488 398 L 1487 399 L 1487 400 L 1486 401 L 1486 403 L 1485 404 L 1485 407 L 1484 408 L 1484 411 L 1483 412 L 1483 425 L 1484 426 L 1484 428 L 1485 429 L 1485 430 L 1486 431 L 1486 432 L 1488 434 L 1488 435 L 1491 438 L 1492 438 L 1494 440 L 1495 440 L 1496 441 L 1498 441 L 1499 442 L 1501 442 L 1502 443 L 1505 443 L 1506 444 L 1516 444 L 1517 443 L 1522 443 L 1523 442 L 1526 442 L 1527 441 L 1530 441 L 1531 440 L 1533 440 L 1534 439 L 1535 439 L 1536 438 L 1538 438 L 1539 437 L 1540 437 L 1541 436 L 1542 436 L 1543 435 L 1544 435 L 1545 434 L 1546 434 L 1547 433 L 1548 433 L 1549 432 L 1550 432 L 1552 430 L 1553 430 L 1554 429 L 1555 429 L 1557 427 L 1558 427 L 1559 426 L 1560 426 L 1562 424 L 1563 424 L 1565 422 L 1566 422 L 1568 420 L 1569 420 L 1572 417 L 1573 417 L 1577 413 L 1578 413 L 1581 410 L 1582 410 L 1586 406 L 1587 406 L 1593 400 L 1594 400 L 1601 393 L 1602 394 L 1602 395 L 1601 396 L 1601 397 L 1599 399 L 1599 400 L 1598 401 L 1598 402 L 1596 404 L 1596 405 L 1595 406 L 1595 407 L 1593 409 L 1593 410 L 1592 411 L 1592 412 L 1591 413 L 1591 414 L 1590 415 L 1590 416 L 1589 417 L 1589 418 L 1588 419 L 1588 420 L 1587 421 L 1587 422 L 1586 423 L 1586 424 L 1585 425 L 1585 428 L 1584 429 L 1584 431 L 1585 432 L 1585 435 L 1590 440 L 1591 440 L 1592 441 L 1593 441 L 1594 442 L 1597 442 L 1598 443 L 1604 443 L 1605 444 L 1609 444 L 1610 443 L 1618 443 L 1619 442 L 1622 442 L 1626 438 L 1626 437 L 1628 435 L 1628 434 L 1629 433 L 1629 432 L 1631 430 L 1631 429 L 1633 427 L 1633 426 L 1635 424 L 1635 423 L 1638 420 L 1638 419 L 1639 418 L 1639 417 L 1641 415 L 1641 414 L 1643 412 L 1643 411 L 1646 408 L 1646 407 L 1648 405 L 1648 404 L 1650 402 L 1650 401 L 1652 399 L 1652 398 L 1655 395 L 1655 394 L 1657 392 L 1657 391 L 1659 389 L 1659 388 L 1662 385 L 1662 384 L 1664 382 L 1664 381 L 1669 376 L 1669 375 L 1672 372 L 1672 371 L 1677 366 L 1677 365 L 1680 362 L 1680 361 L 1685 356 L 1685 355 L 1690 350 L 1690 349 L 1697 342 L 1697 341 L 1704 334 L 1704 333 L 1724 313 L 1725 313 L 1730 308 L 1731 308 L 1736 303 L 1737 303 L 1740 300 L 1741 300 L 1744 297 L 1745 297 L 1746 296 L 1747 296 L 1749 294 L 1750 294 L 1751 293 L 1752 293 L 1754 291 L 1755 291 L 1756 290 L 1757 290 L 1758 289 L 1760 289 L 1761 288 L 1762 288 L 1763 287 L 1765 287 L 1766 286 L 1774 286 L 1775 287 L 1776 287 L 1777 288 L 1777 289 L 1778 290 L 1778 294 L 1777 295 L 1777 297 L 1776 298 L 1776 299 L 1775 300 L 1775 301 L 1774 302 L 1774 303 L 1772 305 L 1772 306 L 1769 309 L 1769 310 L 1768 311 L 1768 312 L 1766 314 L 1766 315 L 1763 318 L 1763 319 L 1761 321 L 1761 322 L 1759 324 L 1759 325 L 1755 329 L 1755 330 L 1753 332 L 1753 333 L 1750 336 L 1750 337 L 1748 339 L 1748 340 L 1745 343 L 1745 344 L 1743 346 L 1743 347 L 1740 350 L 1740 351 L 1738 353 L 1738 354 L 1736 356 L 1736 357 L 1734 359 L 1734 360 L 1732 362 L 1732 363 L 1731 364 L 1731 365 L 1729 367 L 1729 368 L 1728 369 L 1728 370 L 1726 372 L 1726 373 L 1725 374 L 1725 375 L 1724 376 L 1724 377 L 1722 379 L 1722 380 L 1721 381 L 1721 382 L 1720 383 L 1720 385 L 1719 386 L 1719 387 L 1718 388 L 1718 389 L 1717 390 L 1717 392 L 1716 393 L 1716 395 L 1715 396 L 1715 398 L 1714 399 L 1714 401 L 1713 402 L 1713 405 L 1712 406 L 1712 412 L 1711 413 L 1711 422 L 1712 423 L 1712 429 L 1713 430 L 1713 433 L 1714 434 L 1714 435 L 1715 436 L 1715 438 L 1716 439 L 1716 440 L 1717 441 L 1717 442 L 1719 444 L 1719 445 L 1720 446 L 1720 447 L 1724 451 L 1724 452 L 1730 458 L 1731 458 L 1734 461 L 1735 461 L 1737 463 L 1738 463 L 1740 465 L 1741 465 L 1742 466 L 1743 466 L 1744 467 L 1745 467 L 1746 468 L 1747 468 L 1748 469 L 1749 469 L 1750 470 L 1751 470 L 1752 471 L 1754 471 L 1755 472 L 1756 472 L 1757 473 L 1759 473 L 1760 474 L 1762 474 L 1763 475 L 1766 475 L 1767 476 L 1769 476 L 1770 477 L 1773 477 L 1774 478 L 1778 478 L 1779 479 L 1783 479 L 1784 480 L 1790 480 L 1791 481 L 1799 481 L 1800 482 L 1844 482 L 1845 481 L 1854 481 L 1855 480 L 1862 480 L 1863 479 L 1868 479 L 1869 478 L 1873 478 L 1874 477 L 1878 477 L 1879 476 L 1883 476 L 1884 475 L 1888 475 L 1889 474 L 1892 474 L 1893 473 L 1896 473 L 1897 472 L 1900 472 L 1901 471 L 1904 471 L 1905 470 L 1907 470 L 1908 469 L 1911 469 L 1912 468 L 1914 468 L 1915 467 L 1917 467 L 1918 466 L 1920 466 L 1921 465 L 1923 465 L 1924 464 L 1926 464 L 1927 463 L 1929 463 L 1930 462 L 1932 462 L 1933 461 L 1935 461 L 1936 460 L 1937 460 L 1938 459 L 1940 459 L 1941 458 L 1942 458 L 1943 457 L 1945 457 L 1946 456 L 1947 456 L 1948 455 L 1950 455 L 1951 454 L 1952 454 L 1953 453 L 1954 453 L 1955 452 L 1956 452 L 1957 451 L 1958 451 L 1959 450 L 1960 450 L 1961 449 L 1962 449 L 1963 448 L 1964 448 L 1965 447 L 1966 447 L 1967 446 L 1968 446 L 1969 445 L 1970 445 L 1971 444 L 1972 444 L 1973 443 L 1974 443 L 1975 442 L 1976 442 L 1978 440 L 1979 440 L 1980 439 L 1981 439 L 1982 438 L 1983 438 L 1985 436 L 1986 436 L 1988 434 L 1989 434 L 1991 432 L 1992 432 L 1994 430 L 1995 430 L 1997 428 L 1998 428 L 2001 425 L 2002 425 L 2004 423 L 2005 423 L 2011 417 L 2012 417 L 2029 400 L 2029 399 L 2032 396 L 2032 395 L 2036 391 L 2036 390 L 2038 388 L 2038 387 L 2040 385 L 2040 384 L 2041 383 L 2041 382 L 2043 380 L 2043 379 L 2044 378 L 2044 377 L 2046 375 L 2046 374 L 2047 373 L 2047 372 L 2048 371 L 2048 370 L 2049 369 L 2049 368 L 2050 367 L 2050 365 L 2051 364 L 2051 363 L 2052 362 L 2052 361 L 2053 360 L 2053 358 L 2054 357 L 2054 355 L 2055 354 L 2055 351 L 2056 350 L 2056 347 L 2057 346 L 2057 342 L 2058 341 L 2058 335 L 2059 334 L 2059 321 L 2058 320 L 2058 310 L 2057 309 L 2057 306 L 2056 305 L 2056 302 L 2055 301 L 2055 298 L 2054 297 L 2054 295 L 2053 294 L 2053 293 L 2052 292 L 2052 290 L 2051 289 L 2051 288 L 2050 287 L 2050 286 L 2049 285 L 2049 284 L 2048 283 L 2048 282 L 2047 281 L 2047 279 L 2045 277 L 2045 276 L 2044 275 L 2044 274 L 2043 273 L 2043 272 L 2042 271 L 2042 270 L 2041 269 L 2041 268 L 2040 267 L 2040 266 L 2039 265 L 2039 264 L 2038 263 L 2038 262 L 2037 261 L 2037 260 L 2036 259 L 2036 258 L 2035 257 L 2035 256 L 2034 255 L 2034 254 L 2033 253 L 2033 252 L 2032 251 L 2032 245 L 2033 244 L 2033 241 L 2034 240 L 2034 238 L 2035 237 L 2035 235 L 2036 234 L 2036 232 L 2037 231 L 2037 229 L 2038 228 L 2038 226 L 2039 225 L 2039 223 L 2040 222 L 2040 219 L 2041 218 L 2041 215 L 2042 214 L 2042 211 L 2043 210 L 2043 207 L 2044 206 L 2044 202 L 2045 201 L 2045 198 L 2046 197 L 2046 193 L 2047 192 L 2047 188 L 2048 187 L 2048 180 L 2049 179 L 2049 167 L 2048 166 L 2048 163 L 2047 162 L 2047 161 L 2044 158 L 2043 158 L 2042 157 L 2040 157 L 2039 156 L 2034 156 L 2033 157 L 2029 157 L 2028 158 L 2026 158 L 2025 159 L 2023 159 L 2022 160 L 2020 160 L 2019 161 L 2018 161 L 2017 162 L 2016 162 L 2015 163 L 2014 163 L 2013 164 L 2012 164 L 2011 165 L 2010 165 L 2009 166 L 2008 166 L 2007 167 L 2006 167 L 2005 168 L 2004 168 L 2003 169 L 2002 169 L 2000 171 L 1999 171 L 1998 172 L 1997 172 L 1995 174 L 1994 174 L 1992 176 L 1991 176 L 1989 178 L 1988 178 L 1986 180 L 1985 180 L 1983 182 L 1982 182 L 1980 184 L 1979 184 L 1977 186 L 1976 186 L 1974 188 L 1973 188 L 1970 191 L 1969 191 L 1967 193 L 1966 193 L 1964 195 L 1963 195 L 1961 197 L 1960 197 L 1958 199 L 1955 199 L 1954 200 L 1912 200 L 1909 197 L 1908 197 L 1906 195 L 1905 195 L 1902 192 L 1901 192 L 1896 187 L 1895 187 L 1894 186 L 1894 185 L 1893 185 L 1891 183 L 1891 182 L 1886 177 L 1885 177 L 1876 168 L 1875 168 L 1872 165 L 1871 165 L 1869 163 L 1868 163 L 1866 161 L 1865 161 L 1864 160 L 1863 160 L 1862 159 L 1861 159 L 1860 158 L 1858 158 L 1857 157 L 1855 157 L 1854 156 L 1852 156 L 1851 157 L 1849 157 L 1848 158 L 1847 158 L 1845 160 L 1844 160 L 1841 163 L 1841 164 L 1839 166 L 1839 167 L 1838 168 L 1838 169 L 1837 170 L 1837 172 L 1836 173 L 1836 176 L 1835 177 L 1835 185 L 1834 186 L 1834 211 L 1835 212 L 1835 223 L 1836 224 L 1836 228 L 1837 229 L 1837 233 L 1838 234 L 1838 237 L 1839 238 L 1839 240 L 1840 241 L 1841 241 L 1847 247 L 1848 246 L 1848 244 L 1847 243 L 1847 241 L 1846 240 L 1846 236 L 1845 235 L 1845 218 L 1846 217 L 1846 204 L 1847 203 L 1847 196 L 1848 195 L 1848 190 L 1849 189 L 1849 186 L 1850 185 L 1850 182 L 1853 179 L 1857 179 L 1858 180 L 1859 180 L 1861 182 L 1862 182 L 1867 187 L 1868 187 L 1890 209 L 1890 210 L 1897 217 L 1898 216 L 1901 216 L 1902 215 L 1905 215 L 1906 214 L 1913 214 L 1914 213 L 1942 213 L 1943 214 L 1952 214 L 1953 215 L 1955 215 L 1956 216 L 1964 216 L 1965 215 L 1967 215 L 1971 211 L 1972 211 L 1977 206 L 1978 206 L 1981 203 L 1982 203 L 1986 199 L 1987 199 L 1989 197 L 1990 197 L 1993 194 L 1994 194 L 1996 192 L 1997 192 L 1999 190 L 2000 190 L 2002 188 L 2003 188 L 2005 186 L 2006 186 L 2007 185 L 2008 185 L 2009 184 L 2010 184 L 2011 183 L 2012 183 L 2013 182 L 2014 182 L 2015 181 L 2016 181 L 2017 180 L 2019 180 L 2020 179 L 2025 179 L 2027 181 L 2027 188 L 2026 189 L 2026 192 L 2025 193 L 2025 196 L 2024 197 L 2024 199 L 2023 200 L 2023 202 L 2022 203 L 2022 205 L 2021 206 L 2021 208 L 2020 209 L 2020 211 L 2019 212 L 2019 213 L 2018 214 L 2018 216 L 2017 217 L 2017 219 L 2016 220 L 2016 222 L 2015 223 L 2015 225 L 2014 226 L 2014 228 L 2013 229 L 2013 230 L 2012 231 L 2012 233 L 2011 234 L 2011 237 L 2010 238 L 2010 239 L 2009 240 L 2009 242 L 2008 243 L 2008 245 L 2007 246 L 2007 247 L 2004 250 L 2004 251 L 2003 252 L 2003 253 L 2002 254 L 2002 257 L 2001 258 L 2002 259 L 2002 262 L 2003 263 L 2003 264 L 2004 265 L 2004 266 L 2005 267 L 2005 268 L 2006 269 L 2006 270 L 2008 272 L 2008 273 L 2009 274 L 2009 275 L 2010 276 L 2010 277 L 2011 278 L 2011 279 L 2012 280 L 2012 281 L 2013 282 L 2013 284 L 2014 285 L 2014 287 L 2015 288 L 2015 291 L 2016 292 L 2016 297 L 2017 298 L 2017 317 L 2016 318 L 2016 323 L 2015 324 L 2015 328 L 2014 329 L 2014 332 L 2013 333 L 2013 335 L 2012 336 L 2012 337 L 2011 338 L 2011 340 L 2010 341 L 2010 342 L 2009 343 L 2009 345 L 2008 346 L 2008 347 L 2007 348 L 2007 349 L 2006 350 L 2006 351 L 2004 353 L 2004 354 L 2003 355 L 2003 356 L 2002 357 L 2002 358 L 2000 360 L 2000 361 L 1999 362 L 1999 363 L 1997 365 L 1997 366 L 1994 369 L 1994 370 L 1992 372 L 1992 373 L 1989 376 L 1989 377 L 1985 381 L 1985 382 L 1978 389 L 1978 390 L 1963 405 L 1962 405 L 1955 412 L 1954 412 L 1950 416 L 1949 416 L 1946 419 L 1945 419 L 1942 422 L 1941 422 L 1939 424 L 1938 424 L 1936 426 L 1935 426 L 1933 428 L 1932 428 L 1930 430 L 1929 430 L 1928 431 L 1927 431 L 1925 433 L 1924 433 L 1923 434 L 1922 434 L 1921 435 L 1920 435 L 1918 437 L 1917 437 L 1916 438 L 1915 438 L 1914 439 L 1913 439 L 1912 440 L 1911 440 L 1910 441 L 1908 441 L 1907 442 L 1906 442 L 1905 443 L 1904 443 L 1903 444 L 1902 444 L 1901 445 L 1900 445 L 1899 446 L 1898 446 L 1897 447 L 1895 447 L 1894 448 L 1893 448 L 1892 449 L 1891 449 L 1890 450 L 1888 450 L 1887 451 L 1885 451 L 1884 452 L 1883 452 L 1882 453 L 1880 453 L 1879 454 L 1877 454 L 1876 455 L 1874 455 L 1873 456 L 1871 456 L 1870 457 L 1868 457 L 1867 458 L 1864 458 L 1863 459 L 1861 459 L 1860 460 L 1857 460 L 1856 461 L 1853 461 L 1852 462 L 1848 462 L 1847 463 L 1843 463 L 1842 464 L 1837 464 L 1836 465 L 1829 465 L 1828 466 L 1799 466 L 1798 465 L 1792 465 L 1791 464 L 1788 464 L 1787 463 L 1784 463 L 1783 462 L 1781 462 L 1780 461 L 1779 461 L 1778 460 L 1776 460 L 1775 459 L 1774 459 L 1773 458 L 1772 458 L 1770 456 L 1769 456 L 1766 453 L 1765 453 L 1762 450 L 1762 449 L 1759 446 L 1759 445 L 1758 444 L 1758 443 L 1757 442 L 1757 441 L 1756 440 L 1756 437 L 1755 436 L 1755 421 L 1756 420 L 1756 417 L 1757 416 L 1757 414 L 1758 413 L 1758 411 L 1759 410 L 1759 409 L 1760 408 L 1760 406 L 1761 405 L 1761 404 L 1762 403 L 1762 402 L 1763 401 L 1763 400 L 1764 399 L 1764 398 L 1766 396 L 1766 395 L 1767 394 L 1767 393 L 1768 392 L 1768 391 L 1770 389 L 1770 388 L 1772 386 L 1772 385 L 1773 384 L 1773 383 L 1775 381 L 1775 380 L 1777 378 L 1777 377 L 1779 375 L 1779 374 L 1781 372 L 1781 371 L 1783 369 L 1783 368 L 1785 366 L 1785 365 L 1787 363 L 1787 362 L 1790 359 L 1790 358 L 1792 356 L 1792 355 L 1794 353 L 1794 352 L 1797 349 L 1797 348 L 1799 346 L 1799 345 L 1801 343 L 1801 342 L 1803 340 L 1803 339 L 1805 337 L 1805 336 L 1807 334 L 1807 333 L 1809 331 L 1809 330 L 1811 328 L 1811 327 L 1813 325 L 1813 324 L 1815 322 L 1815 321 L 1816 320 L 1816 319 L 1817 318 L 1817 317 L 1818 316 L 1818 315 L 1819 314 L 1819 313 L 1820 312 L 1820 311 L 1821 310 L 1821 309 L 1822 308 L 1822 306 L 1823 305 L 1823 303 L 1824 302 L 1824 297 L 1825 296 L 1825 287 L 1824 286 L 1824 283 L 1823 282 L 1823 280 L 1822 279 L 1822 278 L 1821 277 L 1821 276 L 1814 269 L 1813 269 L 1812 268 L 1811 268 L 1810 267 L 1808 267 L 1807 266 L 1804 266 L 1803 265 L 1785 265 L 1784 266 L 1780 266 L 1779 267 L 1776 267 L 1775 268 L 1773 268 L 1772 269 L 1770 269 L 1769 270 L 1768 270 L 1767 271 L 1766 271 L 1765 272 L 1764 272 L 1763 273 L 1761 273 L 1760 274 L 1759 274 L 1757 276 L 1756 276 L 1755 277 L 1754 277 L 1753 278 L 1752 278 L 1751 279 L 1750 279 L 1748 281 L 1747 281 L 1746 282 L 1745 282 L 1742 285 L 1741 285 L 1739 287 L 1738 287 L 1734 291 L 1733 291 L 1729 295 L 1728 295 L 1723 300 L 1722 300 L 1709 313 L 1708 313 L 1701 320 L 1700 319 L 1700 318 L 1702 316 L 1702 315 L 1703 314 L 1703 313 L 1705 311 L 1705 310 L 1707 308 L 1707 307 L 1709 305 L 1709 304 L 1711 302 L 1711 301 L 1712 300 L 1712 299 L 1713 298 L 1713 297 L 1715 295 L 1715 294 L 1716 293 L 1716 292 L 1717 291 L 1717 290 L 1718 289 L 1718 287 L 1719 286 L 1719 279 L 1718 278 L 1718 277 L 1717 276 L 1717 275 L 1716 274 L 1715 274 L 1713 272 L 1712 272 L 1710 270 L 1708 270 L 1707 269 L 1705 269 L 1704 268 L 1700 268 L 1699 267 L 1689 267 L 1688 268 L 1686 268 L 1685 269 L 1684 269 L 1684 270 L 1682 272 L 1682 273 L 1681 274 L 1681 275 L 1680 276 L 1680 277 L 1678 279 L 1678 280 L 1676 282 L 1676 283 L 1673 286 L 1673 287 L 1670 290 L 1670 291 L 1668 293 L 1668 294 L 1666 296 L 1666 297 L 1663 300 L 1663 301 L 1660 304 L 1660 305 L 1657 308 L 1657 309 L 1655 311 L 1655 312 L 1653 314 L 1653 315 L 1650 318 L 1650 319 L 1648 321 L 1648 322 L 1646 324 L 1646 325 L 1644 327 L 1644 328 L 1641 331 L 1641 332 L 1639 334 L 1639 335 L 1638 336 L 1638 337 L 1636 339 L 1636 340 L 1634 342 L 1634 343 L 1632 345 L 1632 346 L 1630 348 L 1630 349 L 1628 351 L 1628 352 L 1626 354 L 1626 355 L 1615 366 L 1615 367 L 1614 368 L 1613 368 L 1592 389 L 1591 389 L 1591 390 L 1590 391 L 1589 391 L 1584 396 L 1583 396 L 1578 401 L 1577 401 L 1573 405 L 1572 405 L 1569 408 L 1568 408 L 1566 410 L 1565 410 L 1563 412 L 1562 412 L 1560 414 L 1559 414 L 1557 416 L 1556 416 L 1555 417 L 1554 417 L 1553 418 L 1552 418 L 1551 419 L 1550 419 L 1549 420 L 1548 420 L 1547 421 L 1545 421 L 1544 422 L 1543 422 L 1542 423 L 1533 423 L 1529 419 L 1529 415 L 1528 414 L 1529 413 L 1529 410 L 1530 409 L 1530 407 L 1531 406 L 1531 405 L 1532 404 L 1532 402 L 1533 401 L 1533 400 L 1534 399 L 1534 398 L 1535 397 L 1535 396 L 1536 395 L 1536 394 L 1538 392 L 1538 391 L 1539 390 L 1539 389 L 1540 388 L 1540 387 L 1542 385 L 1542 384 L 1543 383 L 1543 382 L 1545 380 L 1545 379 L 1547 377 L 1547 376 L 1548 375 L 1548 374 L 1550 372 L 1550 371 L 1551 370 L 1551 369 L 1554 366 L 1554 365 L 1555 364 L 1555 363 L 1557 361 L 1557 360 L 1559 358 L 1559 357 L 1560 356 L 1560 355 L 1562 353 L 1562 352 L 1564 350 L 1564 349 L 1566 347 L 1566 346 L 1567 345 L 1567 344 L 1570 341 L 1570 340 L 1571 339 L 1571 338 L 1573 336 L 1573 335 L 1575 333 L 1575 332 L 1577 330 L 1577 329 L 1579 327 L 1579 326 L 1580 325 L 1580 324 L 1582 322 L 1582 321 L 1584 319 L 1584 318 L 1586 316 L 1586 315 L 1588 313 L 1588 312 L 1590 310 L 1590 309 L 1591 308 L 1591 307 L 1593 305 L 1593 304 L 1595 302 L 1595 301 L 1596 300 L 1596 299 L 1598 297 L 1598 296 L 1599 295 L 1599 294 L 1601 292 L 1601 291 L 1602 290 L 1602 289 L 1603 288 L 1603 287 L 1604 286 L 1604 283 L 1605 282 L 1605 278 L 1604 277 L 1604 275 L 1603 274 L 1603 273 L 1602 272 L 1601 272 L 1599 270 L 1598 270 L 1597 269 L 1595 269 L 1594 268 L 1591 268 L 1590 267 L 1574 267 L 1573 268 L 1571 268 L 1570 269 L 1569 269 L 1566 272 L 1566 273 L 1565 274 L 1565 275 L 1564 276 L 1564 277 L 1562 279 L 1562 280 L 1559 283 L 1559 284 L 1556 287 L 1556 288 L 1553 291 L 1553 292 L 1550 295 L 1550 296 L 1547 299 L 1547 300 L 1544 303 L 1544 304 L 1542 306 L 1542 307 L 1540 309 L 1540 310 L 1538 312 L 1538 313 L 1535 316 L 1535 317 L 1533 319 L 1533 320 L 1531 322 L 1531 323 L 1528 326 L 1528 327 L 1526 329 L 1526 330 L 1525 331 L 1525 332 L 1523 334 L 1523 335 L 1521 337 L 1521 338 L 1519 340 L 1519 341 L 1517 343 L 1517 344 L 1516 345 L 1516 346 L 1514 348 L 1514 349 L 1512 351 L 1512 352 L 1508 356 L 1508 357 L 1502 363 L 1502 364 L 1481 385 L 1480 385 L 1471 394 L 1470 394 L 1466 398 L 1465 398 L 1461 402 L 1460 402 L 1457 405 L 1456 405 L 1453 408 L 1452 408 L 1450 410 L 1449 410 L 1447 412 L 1446 412 L 1445 413 L 1444 413 L 1443 414 L 1442 414 L 1440 416 L 1439 416 L 1438 417 L 1437 417 L 1436 418 L 1435 418 L 1434 419 L 1433 419 L 1432 420 L 1431 420 L 1430 421 L 1429 421 L 1428 422 L 1425 422 L 1424 423 L 1418 423 L 1417 422 L 1416 422 L 1414 420 L 1414 419 L 1413 418 L 1413 413 L 1414 412 L 1414 410 L 1415 409 L 1415 407 L 1416 406 L 1416 405 L 1418 403 L 1418 402 L 1419 401 L 1419 400 L 1420 399 L 1420 398 L 1422 396 L 1422 395 L 1423 394 L 1423 393 L 1425 391 L 1425 390 L 1427 388 L 1427 387 L 1429 385 L 1429 384 L 1430 383 L 1430 382 L 1432 380 L 1432 379 L 1435 376 L 1435 375 L 1437 373 L 1437 372 L 1439 370 L 1439 369 L 1441 367 L 1441 366 L 1443 364 L 1443 363 L 1445 361 L 1445 360 L 1447 358 L 1447 357 L 1450 354 L 1450 353 L 1452 351 L 1452 350 L 1454 348 L 1454 347 L 1456 345 L 1456 344 L 1458 342 L 1458 341 L 1460 339 L 1460 338 L 1462 336 L 1462 335 L 1464 333 L 1464 332 L 1466 330 L 1466 329 L 1468 327 L 1468 326 L 1469 325 L 1469 324 L 1470 323 L 1470 322 L 1472 320 L 1472 319 L 1473 318 L 1473 317 L 1474 316 L 1474 314 L 1475 313 L 1475 312 L 1476 311 L 1476 309 L 1477 308 L 1477 306 L 1478 305 L 1478 300 L 1479 299 L 1479 291 L 1478 290 L 1478 286 L 1477 285 L 1477 283 L 1476 282 L 1476 281 L 1475 280 L 1475 279 L 1473 277 L 1473 276 L 1470 273 L 1469 273 L 1467 271 L 1466 271 L 1465 270 L 1464 270 L 1463 269 L 1461 269 L 1460 268 L 1455 268 L 1454 267 L 1449 267 L 1448 268 L 1443 268 L 1442 269 L 1440 269 L 1439 270 L 1437 270 L 1436 271 L 1434 271 L 1433 272 L 1432 272 L 1431 273 L 1430 273 L 1429 274 L 1428 274 L 1427 275 L 1426 275 L 1425 276 L 1424 276 L 1422 278 L 1421 278 L 1420 279 L 1419 279 L 1417 281 L 1416 281 L 1413 284 L 1412 284 L 1409 287 L 1408 287 L 1404 291 L 1403 291 L 1395 299 L 1394 299 L 1379 314 L 1378 313 L 1378 312 L 1379 311 L 1379 309 L 1380 308 L 1380 306 L 1381 305 L 1381 303 L 1382 302 L 1382 297 L 1383 296 L 1383 290 L 1382 289 L 1382 285 L 1381 284 L 1381 282 L 1380 281 L 1380 280 L 1379 279 L 1379 278 L 1373 272 L 1372 272 L 1371 271 L 1370 271 L 1369 270 L 1368 270 L 1367 269 L 1365 269 L 1364 268 L 1350 268 L 1349 269 L 1347 269 L 1346 270 L 1344 270 L 1343 271 L 1342 271 L 1341 272 L 1339 272 L 1338 273 L 1337 273 L 1336 274 L 1335 274 L 1334 275 L 1333 275 L 1331 277 L 1330 277 L 1329 278 L 1328 278 L 1326 280 L 1325 280 L 1323 282 L 1322 282 L 1319 285 L 1318 285 L 1314 289 L 1313 289 L 1308 294 L 1307 294 L 1299 302 L 1298 302 L 1279 321 L 1278 320 L 1278 319 L 1280 317 L 1280 316 L 1281 315 L 1281 314 L 1282 313 L 1282 312 L 1284 310 L 1284 309 L 1285 308 L 1285 307 L 1286 306 L 1286 305 L 1288 303 L 1288 302 L 1289 301 L 1289 300 L 1290 299 L 1290 297 L 1292 295 L 1292 293 L 1293 292 L 1293 290 L 1294 289 L 1294 282 L 1293 281 L 1293 279 L 1291 277 L 1291 276 L 1290 275 L 1289 275 L 1287 273 L 1286 273 L 1285 272 L 1284 272 L 1283 271 L 1281 271 L 1280 270 L 1277 270 L 1276 269 L 1273 269 L 1272 268 L 1268 268 L 1267 269 L 1263 269 L 1262 270 L 1261 270 L 1260 271 L 1260 272 L 1259 273 L 1259 274 L 1258 275 L 1258 276 L 1257 277 L 1257 278 L 1256 279 L 1256 280 L 1255 281 L 1255 282 L 1254 283 L 1254 284 L 1252 286 L 1252 287 L 1248 291 L 1248 292 L 1239 301 L 1238 301 L 1228 311 L 1227 311 L 1224 314 L 1223 314 L 1219 318 L 1218 318 L 1216 320 L 1215 320 L 1212 323 L 1211 323 L 1209 325 L 1208 325 L 1206 327 L 1205 327 L 1203 329 L 1202 329 L 1201 330 L 1200 330 L 1199 331 L 1198 331 L 1196 333 L 1195 333 L 1194 334 L 1193 334 L 1192 335 L 1191 335 L 1190 336 L 1189 336 L 1188 337 L 1187 337 L 1186 338 L 1184 338 L 1183 339 L 1182 339 L 1181 340 L 1179 340 L 1178 341 L 1176 341 L 1175 342 L 1173 342 L 1172 343 L 1169 343 L 1168 344 L 1160 344 L 1159 343 L 1159 342 L 1160 341 L 1160 340 L 1161 339 L 1161 338 L 1162 337 L 1162 336 L 1163 335 L 1163 333 L 1164 332 L 1164 331 L 1165 330 L 1165 328 L 1166 327 L 1166 325 L 1167 324 L 1167 321 L 1168 320 L 1168 314 L 1169 313 L 1169 309 L 1168 308 L 1168 305 L 1167 304 L 1167 302 L 1166 301 L 1166 300 L 1165 299 L 1165 298 L 1162 295 L 1161 295 L 1158 292 L 1158 291 L 1159 290 L 1159 289 L 1160 288 L 1160 285 L 1161 284 L 1161 283 L 1160 282 L 1160 279 L 1158 277 L 1158 276 L 1157 275 L 1156 275 L 1153 272 L 1152 272 L 1151 271 L 1150 271 L 1149 270 L 1147 270 L 1146 269 L 1145 269 L 1144 268 L 1141 268 L 1140 267 L 1136 267 L 1135 266 L 1111 266 L 1110 267 L 1105 267 L 1104 268 L 1100 268 L 1099 269 L 1096 269 L 1095 270 L 1093 270 L 1092 271 L 1090 271 L 1089 272 L 1087 272 L 1086 273 L 1084 273 L 1083 274 L 1082 274 L 1081 275 L 1079 275 L 1078 276 L 1077 276 L 1076 277 L 1075 277 L 1074 278 L 1072 278 L 1071 279 L 1070 279 L 1069 280 L 1068 280 L 1067 281 L 1066 281 L 1064 283 L 1063 283 L 1062 284 L 1061 284 L 1059 286 L 1058 286 L 1057 287 L 1056 287 L 1054 289 L 1053 289 L 1051 291 L 1050 291 L 1047 294 L 1046 294 L 1043 297 L 1042 297 L 1038 301 L 1037 301 L 1019 319 L 1019 320 L 1014 325 L 1014 326 L 1011 329 L 1011 330 L 1008 333 L 1008 334 L 1006 336 L 1006 337 L 1004 339 L 1004 340 L 1002 342 L 1002 343 L 1000 345 L 1000 346 L 999 347 L 999 348 L 997 350 L 997 351 L 962 386 L 961 386 L 954 393 L 953 393 L 949 397 L 948 397 L 944 401 L 943 401 L 940 404 L 939 404 L 936 407 L 935 407 L 933 409 L 932 409 L 930 411 L 929 411 L 928 412 L 927 412 L 925 414 L 924 414 L 923 415 L 922 415 L 920 417 L 919 417 L 918 418 L 917 418 L 916 419 L 915 419 L 914 420 L 912 420 L 911 421 L 910 421 L 909 422 L 906 422 L 905 423 L 894 423 L 893 422 L 891 422 L 890 421 L 888 421 L 886 419 L 885 419 L 880 414 L 880 413 L 878 411 L 878 410 L 877 409 L 877 408 L 876 407 L 876 406 L 875 405 L 875 404 L 874 403 L 874 401 L 873 400 L 873 399 L 872 398 L 872 396 L 871 395 L 871 393 L 870 392 L 870 389 L 869 388 L 869 386 L 868 385 L 868 383 L 867 382 L 867 379 L 866 378 L 866 376 L 865 375 L 865 373 L 864 372 L 864 370 L 863 369 L 863 367 L 862 366 L 862 365 L 861 364 L 861 363 L 863 361 L 878 361 L 879 360 L 885 360 L 886 359 L 891 359 L 892 358 L 896 358 L 897 357 L 900 357 L 901 356 L 904 356 L 905 355 L 907 355 L 908 354 L 910 354 L 911 353 L 913 353 L 914 352 L 916 352 L 917 351 L 919 351 L 920 350 L 921 350 L 922 349 L 923 349 L 924 348 L 925 348 L 926 347 L 928 347 L 929 346 L 930 346 L 931 345 L 932 345 L 933 344 L 934 344 L 935 343 L 936 343 L 938 341 L 939 341 L 940 340 L 941 340 L 943 338 L 944 338 L 946 336 L 947 336 L 949 334 L 950 334 L 954 330 L 955 330 L 964 321 L 964 320 L 967 317 L 967 316 L 969 314 L 969 313 L 970 312 L 970 311 L 971 310 L 971 309 L 972 308 L 972 307 L 973 306 L 973 304 L 974 303 L 974 299 L 975 298 L 975 287 L 974 286 L 974 284 L 973 283 L 973 281 L 972 280 L 972 279 L 971 278 L 971 277 L 965 271 L 964 271 L 962 269 L 961 269 L 960 268 L 959 268 L 958 267 L 956 267 L 955 266 L 952 266 L 951 265 L 929 265 L 928 266 L 923 266 L 922 267 L 919 267 L 918 268 L 915 268 L 914 269 L 912 269 L 911 270 L 909 270 L 908 271 L 907 271 L 906 272 L 904 272 L 903 273 L 902 273 L 901 274 L 900 274 L 899 275 L 898 275 L 897 276 L 896 276 L 895 277 L 894 277 L 893 278 L 892 278 L 891 279 L 890 279 L 888 281 L 887 281 L 886 282 L 885 282 L 884 283 L 883 283 L 881 285 L 880 285 L 878 287 L 877 287 L 874 290 L 873 290 L 871 292 L 870 292 L 866 296 L 865 296 L 863 298 L 862 298 L 858 302 L 857 302 L 849 310 L 848 310 L 820 338 L 820 339 L 817 342 L 816 341 L 816 340 L 818 338 L 818 337 L 820 335 L 820 334 L 821 333 L 821 332 L 823 330 L 823 329 L 825 327 L 825 326 L 827 324 L 827 323 L 828 322 L 828 321 L 830 319 L 830 318 L 832 316 L 832 315 L 833 314 L 833 313 L 835 311 L 835 310 L 837 308 L 837 307 L 839 305 L 839 304 L 841 302 L 841 301 L 842 300 L 842 299 L 844 297 L 844 296 L 846 294 L 846 293 L 848 291 L 848 290 L 850 288 L 850 287 L 852 285 L 852 284 L 853 283 L 853 282 L 855 280 L 855 279 L 857 277 L 857 276 L 859 274 L 859 273 L 861 271 L 861 270 L 863 268 L 863 267 L 865 265 L 865 264 L 867 262 L 867 261 L 869 259 L 869 258 L 871 256 L 871 255 L 874 252 L 874 251 L 876 249 L 876 248 L 879 245 L 879 244 L 881 242 L 881 241 L 884 238 L 884 237 L 886 235 L 886 234 L 890 230 L 890 229 L 893 226 L 893 225 L 897 221 L 897 220 L 901 216 L 901 215 L 906 210 L 906 209 L 912 203 L 912 202 L 918 196 L 918 195 L 933 180 L 933 179 L 936 176 L 937 176 L 952 161 L 953 161 L 960 154 L 961 154 L 964 151 L 965 151 L 969 147 L 970 147 L 973 144 L 974 144 L 976 142 L 977 142 L 980 139 L 981 139 L 983 137 L 984 137 L 986 135 L 987 135 L 988 134 L 989 134 L 990 133 L 991 133 L 993 131 L 994 131 L 996 129 L 997 129 L 998 128 L 999 128 L 1000 127 L 1001 127 L 1002 126 L 1003 126 L 1004 125 L 1005 125 L 1006 124 L 1007 124 L 1008 123 L 1009 123 L 1010 122 L 1012 122 L 1013 121 L 1014 121 L 1015 120 L 1017 120 L 1018 119 L 1021 119 L 1022 118 L 1023 118 L 1024 117 L 1024 115 L 1020 111 L 1019 111 L 1018 110 L 1016 110 L 1015 109 L 1013 109 L 1012 108 L 1008 108 L 1007 107 Z M 913 284 L 914 283 L 922 283 L 923 284 L 925 284 L 928 287 L 928 290 L 929 291 L 929 292 L 928 293 L 928 297 L 927 298 L 927 299 L 926 300 L 926 301 L 925 302 L 925 303 L 924 304 L 924 305 L 922 307 L 922 308 L 919 311 L 919 312 L 905 326 L 904 326 L 901 329 L 900 329 L 897 332 L 896 332 L 894 334 L 893 334 L 891 336 L 890 336 L 889 337 L 888 337 L 886 339 L 885 339 L 884 340 L 883 340 L 882 341 L 881 341 L 880 342 L 879 342 L 878 343 L 876 343 L 875 344 L 874 344 L 873 345 L 871 345 L 870 346 L 868 346 L 867 347 L 865 347 L 864 348 L 861 348 L 860 349 L 855 349 L 854 350 L 838 350 L 837 349 L 834 349 L 833 348 L 831 348 L 830 347 L 832 345 L 832 344 L 839 337 L 839 336 L 854 321 L 855 321 L 863 313 L 864 313 L 868 309 L 869 309 L 873 305 L 874 305 L 877 302 L 878 302 L 880 300 L 881 300 L 883 298 L 884 298 L 886 296 L 887 296 L 888 295 L 889 295 L 891 293 L 892 293 L 893 292 L 894 292 L 896 290 L 897 290 L 898 289 L 899 289 L 900 288 L 901 288 L 902 287 L 904 287 L 905 286 L 906 286 L 907 285 L 909 285 L 910 284 Z M 1127 283 L 1128 282 L 1140 282 L 1141 283 L 1143 283 L 1145 285 L 1146 285 L 1149 288 L 1149 289 L 1150 290 L 1150 292 L 1149 293 L 1148 293 L 1147 294 L 1145 294 L 1144 295 L 1143 295 L 1142 296 L 1141 296 L 1140 297 L 1139 297 L 1138 298 L 1137 298 L 1136 299 L 1135 299 L 1125 309 L 1125 310 L 1123 312 L 1123 313 L 1121 315 L 1121 316 L 1120 317 L 1120 318 L 1119 319 L 1119 321 L 1118 322 L 1118 324 L 1117 325 L 1117 329 L 1116 330 L 1116 339 L 1117 340 L 1117 342 L 1118 343 L 1118 345 L 1120 347 L 1120 348 L 1123 351 L 1124 351 L 1127 354 L 1128 354 L 1129 355 L 1130 355 L 1131 356 L 1130 357 L 1130 358 L 1129 359 L 1129 360 L 1127 362 L 1127 363 L 1125 365 L 1125 366 L 1124 367 L 1124 368 L 1121 371 L 1121 372 L 1119 374 L 1119 375 L 1116 378 L 1116 379 L 1111 384 L 1111 385 L 1106 390 L 1106 391 L 1088 409 L 1087 409 L 1083 413 L 1082 413 L 1078 417 L 1077 417 L 1075 419 L 1074 419 L 1072 421 L 1071 421 L 1069 423 L 1068 423 L 1067 424 L 1066 424 L 1065 425 L 1064 425 L 1063 426 L 1061 426 L 1060 427 L 1058 427 L 1057 428 L 1054 428 L 1053 429 L 1044 429 L 1043 428 L 1041 428 L 1040 427 L 1039 427 L 1034 422 L 1034 421 L 1033 420 L 1033 419 L 1032 418 L 1032 416 L 1031 415 L 1031 402 L 1032 401 L 1032 398 L 1033 397 L 1033 394 L 1034 393 L 1034 390 L 1035 389 L 1035 388 L 1036 387 L 1036 385 L 1037 384 L 1037 382 L 1038 381 L 1038 380 L 1039 379 L 1039 378 L 1040 377 L 1040 375 L 1041 374 L 1041 373 L 1042 372 L 1042 371 L 1043 370 L 1043 369 L 1044 368 L 1044 367 L 1045 366 L 1045 365 L 1046 364 L 1046 363 L 1047 362 L 1047 361 L 1048 360 L 1048 359 L 1050 357 L 1050 356 L 1051 355 L 1051 354 L 1052 353 L 1052 352 L 1054 350 L 1054 349 L 1056 347 L 1056 346 L 1058 344 L 1058 343 L 1060 341 L 1060 340 L 1062 338 L 1062 337 L 1065 334 L 1065 333 L 1068 330 L 1068 329 L 1073 324 L 1073 323 L 1095 301 L 1096 301 L 1101 296 L 1102 296 L 1104 294 L 1105 294 L 1107 292 L 1108 292 L 1110 290 L 1111 290 L 1112 289 L 1113 289 L 1115 287 L 1116 287 L 1117 286 L 1118 286 L 1119 285 L 1121 285 L 1122 284 L 1124 284 L 1125 283 Z M 693 280 L 694 279 L 703 279 L 708 284 L 708 294 L 707 295 L 707 297 L 706 298 L 706 300 L 705 301 L 705 302 L 704 303 L 704 304 L 703 305 L 703 306 L 701 308 L 701 309 L 698 312 L 698 313 L 682 329 L 681 329 L 678 332 L 677 332 L 674 335 L 673 335 L 671 337 L 670 337 L 669 338 L 668 338 L 667 339 L 666 339 L 665 340 L 664 340 L 662 342 L 660 342 L 659 343 L 658 343 L 657 344 L 656 344 L 655 345 L 654 345 L 653 346 L 651 346 L 650 347 L 648 347 L 647 348 L 645 348 L 644 349 L 642 349 L 641 350 L 638 350 L 637 351 L 634 351 L 633 352 L 627 352 L 626 353 L 622 353 L 621 352 L 621 351 L 622 350 L 622 349 L 624 347 L 624 346 L 626 344 L 626 343 L 627 342 L 627 341 L 630 338 L 630 337 L 632 335 L 632 334 L 634 332 L 634 331 L 638 327 L 638 326 L 641 323 L 641 322 L 644 319 L 644 318 L 654 308 L 654 307 L 663 298 L 664 298 L 669 293 L 670 293 L 674 289 L 675 289 L 677 287 L 678 287 L 680 285 L 681 285 L 682 284 L 683 284 L 684 283 L 685 283 L 686 282 L 687 282 L 688 281 L 690 281 L 691 280 Z" fill="#000000" fill-rule="evenodd"/>
  <path d="M 925 20 L 924 21 L 895 21 L 894 22 L 880 22 L 879 23 L 867 23 L 866 24 L 857 24 L 856 25 L 847 25 L 846 26 L 838 26 L 837 27 L 830 27 L 829 28 L 822 28 L 821 29 L 816 29 L 815 30 L 809 30 L 808 31 L 803 31 L 802 32 L 797 32 L 796 33 L 792 33 L 791 34 L 786 34 L 785 35 L 781 35 L 780 36 L 777 36 L 776 37 L 772 37 L 771 38 L 768 38 L 767 39 L 763 39 L 762 40 L 759 40 L 758 41 L 755 41 L 754 42 L 751 42 L 750 43 L 747 43 L 746 44 L 743 44 L 742 45 L 740 45 L 739 46 L 737 46 L 736 47 L 733 47 L 732 48 L 730 48 L 729 49 L 727 49 L 726 50 L 724 50 L 723 51 L 721 51 L 720 52 L 718 52 L 717 53 L 715 53 L 714 54 L 712 54 L 711 55 L 710 55 L 709 56 L 707 56 L 706 57 L 704 57 L 703 58 L 702 58 L 701 59 L 699 59 L 698 60 L 697 60 L 696 61 L 695 61 L 694 62 L 692 62 L 691 63 L 690 63 L 689 64 L 688 64 L 687 65 L 686 65 L 685 66 L 684 66 L 683 67 L 682 67 L 681 68 L 680 68 L 679 69 L 678 69 L 677 70 L 676 70 L 675 71 L 674 71 L 673 72 L 672 72 L 671 73 L 670 73 L 669 74 L 668 74 L 667 75 L 666 75 L 664 77 L 663 77 L 662 78 L 661 78 L 659 80 L 658 80 L 657 81 L 656 81 L 654 83 L 653 83 L 651 85 L 650 85 L 648 87 L 647 87 L 644 90 L 643 90 L 640 93 L 639 93 L 636 96 L 635 96 L 630 101 L 629 101 L 623 107 L 622 107 L 600 129 L 600 130 L 594 136 L 594 137 L 590 141 L 590 142 L 586 146 L 586 147 L 582 151 L 582 152 L 580 154 L 580 155 L 577 158 L 577 159 L 574 162 L 574 163 L 572 165 L 572 166 L 570 168 L 570 169 L 568 171 L 568 172 L 566 174 L 566 175 L 564 177 L 564 178 L 562 180 L 562 181 L 560 183 L 560 184 L 558 186 L 558 187 L 556 189 L 556 190 L 555 191 L 555 192 L 553 194 L 553 195 L 552 196 L 552 197 L 550 199 L 550 200 L 548 202 L 548 203 L 547 204 L 547 205 L 546 206 L 546 207 L 544 209 L 544 210 L 543 211 L 543 212 L 541 214 L 541 215 L 540 216 L 540 217 L 538 219 L 538 220 L 537 221 L 537 222 L 536 223 L 536 224 L 534 226 L 534 227 L 533 228 L 533 229 L 532 230 L 532 231 L 531 232 L 531 233 L 530 234 L 530 235 L 529 236 L 529 237 L 527 239 L 527 240 L 526 241 L 526 242 L 525 243 L 525 244 L 524 245 L 524 246 L 523 247 L 523 248 L 522 249 L 522 250 L 521 251 L 521 252 L 520 253 L 520 254 L 519 255 L 519 256 L 517 258 L 517 259 L 516 260 L 516 261 L 515 262 L 515 263 L 514 264 L 514 265 L 513 266 L 513 268 L 511 270 L 511 271 L 510 272 L 510 273 L 509 274 L 509 275 L 508 276 L 508 277 L 507 278 L 507 279 L 506 280 L 506 281 L 505 282 L 505 284 L 504 285 L 504 286 L 503 287 L 503 288 L 502 289 L 502 290 L 501 291 L 501 292 L 500 293 L 500 294 L 499 295 L 499 296 L 498 297 L 498 298 L 497 299 L 497 301 L 496 302 L 496 303 L 495 304 L 495 305 L 494 306 L 494 307 L 493 308 L 493 309 L 492 310 L 492 312 L 491 313 L 491 314 L 490 315 L 490 316 L 489 317 L 489 318 L 488 319 L 488 320 L 487 321 L 487 322 L 486 323 L 486 325 L 485 326 L 485 327 L 484 328 L 484 329 L 483 330 L 483 332 L 482 333 L 482 334 L 481 335 L 481 336 L 480 337 L 480 338 L 479 339 L 479 341 L 478 342 L 478 343 L 477 344 L 477 345 L 476 346 L 476 348 L 475 349 L 475 350 L 474 351 L 474 352 L 473 353 L 473 355 L 472 356 L 472 357 L 471 358 L 471 359 L 470 360 L 470 362 L 469 363 L 469 364 L 468 365 L 468 366 L 467 367 L 467 369 L 466 370 L 466 371 L 465 372 L 465 373 L 464 374 L 464 376 L 463 377 L 463 379 L 462 380 L 462 381 L 461 382 L 461 383 L 460 384 L 460 386 L 459 387 L 459 388 L 458 389 L 458 391 L 457 392 L 457 393 L 456 394 L 456 396 L 455 397 L 455 398 L 454 399 L 452 397 L 452 393 L 451 392 L 451 388 L 450 387 L 450 382 L 449 381 L 449 375 L 448 374 L 448 368 L 447 367 L 447 361 L 446 360 L 446 354 L 445 353 L 445 347 L 444 346 L 444 339 L 443 338 L 443 332 L 442 331 L 442 322 L 441 321 L 441 313 L 440 312 L 440 300 L 439 299 L 439 252 L 440 251 L 440 240 L 441 239 L 441 231 L 442 230 L 442 224 L 443 223 L 443 217 L 444 216 L 444 211 L 445 210 L 445 206 L 446 205 L 446 201 L 447 200 L 447 196 L 448 195 L 448 192 L 449 191 L 449 188 L 450 187 L 450 184 L 451 183 L 451 181 L 452 180 L 452 177 L 453 176 L 453 174 L 454 173 L 454 171 L 455 170 L 455 168 L 456 167 L 456 166 L 457 165 L 457 163 L 458 162 L 458 160 L 459 159 L 459 158 L 460 157 L 460 156 L 461 155 L 461 154 L 462 153 L 462 152 L 464 150 L 464 149 L 466 147 L 466 146 L 470 142 L 471 142 L 473 140 L 474 140 L 475 139 L 476 139 L 477 138 L 478 138 L 479 137 L 481 137 L 482 136 L 483 136 L 484 135 L 486 135 L 487 134 L 488 134 L 489 133 L 490 133 L 494 129 L 494 128 L 496 126 L 496 123 L 495 122 L 495 121 L 494 120 L 479 120 L 478 119 L 455 119 L 454 118 L 439 118 L 438 117 L 418 117 L 417 116 L 395 116 L 394 115 L 361 115 L 360 116 L 340 116 L 339 117 L 327 117 L 326 118 L 316 118 L 315 119 L 309 119 L 308 120 L 301 120 L 300 121 L 294 121 L 293 122 L 289 122 L 288 123 L 284 123 L 283 124 L 279 124 L 278 125 L 275 125 L 274 126 L 271 126 L 270 127 L 267 127 L 266 128 L 263 128 L 262 129 L 259 129 L 258 130 L 256 130 L 255 131 L 253 131 L 252 132 L 250 132 L 249 133 L 247 133 L 246 134 L 244 134 L 243 135 L 242 135 L 241 136 L 239 136 L 238 137 L 236 137 L 235 138 L 234 138 L 233 139 L 231 139 L 230 140 L 229 140 L 228 141 L 227 141 L 226 142 L 225 142 L 224 143 L 223 143 L 222 144 L 220 144 L 219 145 L 218 145 L 216 147 L 215 147 L 214 148 L 213 148 L 212 149 L 211 149 L 210 150 L 209 150 L 207 152 L 206 152 L 205 153 L 204 153 L 203 154 L 202 154 L 200 156 L 199 156 L 197 158 L 196 158 L 193 161 L 192 161 L 189 164 L 188 164 L 183 169 L 182 169 L 174 177 L 174 178 L 169 183 L 169 184 L 166 187 L 166 188 L 164 190 L 164 191 L 162 193 L 162 194 L 161 195 L 161 196 L 159 198 L 159 199 L 158 200 L 158 201 L 157 202 L 157 203 L 156 204 L 156 206 L 155 207 L 155 208 L 154 209 L 154 211 L 153 212 L 153 214 L 152 215 L 152 218 L 151 219 L 151 223 L 150 224 L 150 231 L 149 232 L 149 241 L 150 242 L 150 248 L 151 249 L 151 253 L 152 254 L 152 257 L 153 258 L 153 260 L 154 261 L 154 262 L 155 263 L 155 264 L 156 265 L 156 266 L 157 267 L 157 268 L 158 269 L 158 270 L 159 271 L 159 272 L 161 274 L 161 275 L 173 287 L 174 287 L 175 288 L 176 288 L 177 289 L 178 289 L 179 290 L 180 290 L 180 289 L 178 287 L 178 286 L 177 285 L 177 284 L 176 283 L 176 282 L 175 281 L 175 280 L 174 279 L 174 278 L 173 277 L 173 275 L 172 274 L 172 270 L 171 269 L 171 257 L 172 256 L 172 252 L 173 251 L 173 248 L 174 247 L 174 245 L 175 244 L 175 243 L 176 242 L 176 240 L 177 239 L 177 238 L 178 237 L 178 236 L 179 235 L 179 234 L 181 232 L 181 231 L 182 230 L 182 229 L 184 227 L 184 226 L 188 222 L 188 221 L 193 216 L 193 215 L 199 209 L 200 209 L 208 201 L 209 201 L 212 198 L 213 198 L 216 195 L 217 195 L 220 192 L 221 192 L 223 190 L 224 190 L 226 188 L 227 188 L 228 187 L 229 187 L 231 185 L 232 185 L 233 184 L 234 184 L 236 182 L 237 182 L 238 181 L 239 181 L 240 180 L 241 180 L 242 179 L 243 179 L 244 178 L 245 178 L 247 176 L 248 176 L 249 175 L 250 175 L 251 174 L 252 174 L 253 173 L 255 173 L 256 172 L 257 172 L 258 171 L 259 171 L 260 170 L 261 170 L 262 169 L 263 169 L 264 168 L 266 168 L 267 167 L 268 167 L 269 166 L 271 166 L 272 165 L 273 165 L 274 164 L 276 164 L 277 163 L 279 163 L 280 162 L 281 162 L 282 161 L 284 161 L 285 160 L 287 160 L 288 159 L 291 159 L 292 158 L 294 158 L 295 157 L 297 157 L 298 156 L 301 156 L 302 155 L 305 155 L 306 154 L 309 154 L 310 153 L 313 153 L 314 152 L 317 152 L 318 151 L 322 151 L 323 150 L 327 150 L 328 149 L 332 149 L 333 148 L 338 148 L 339 147 L 344 147 L 345 146 L 351 146 L 352 145 L 358 145 L 359 144 L 366 144 L 367 143 L 379 143 L 380 142 L 395 142 L 396 141 L 422 141 L 423 142 L 422 143 L 421 143 L 419 145 L 418 145 L 414 149 L 413 149 L 410 152 L 409 152 L 405 156 L 404 156 L 396 164 L 395 164 L 374 185 L 374 186 L 366 194 L 366 195 L 361 200 L 361 201 L 356 206 L 356 207 L 352 211 L 352 212 L 348 216 L 348 217 L 345 220 L 345 221 L 341 225 L 341 226 L 338 229 L 338 230 L 335 233 L 335 234 L 332 237 L 332 238 L 329 241 L 329 242 L 327 244 L 327 245 L 324 248 L 324 249 L 321 252 L 321 253 L 319 255 L 319 256 L 316 259 L 316 260 L 314 262 L 314 263 L 311 266 L 311 267 L 309 269 L 309 270 L 307 272 L 307 273 L 304 276 L 304 277 L 302 279 L 302 280 L 300 282 L 300 283 L 297 286 L 297 287 L 295 289 L 295 290 L 293 292 L 293 293 L 291 295 L 291 296 L 289 298 L 289 299 L 288 300 L 288 301 L 286 303 L 286 304 L 284 306 L 284 307 L 282 309 L 282 310 L 280 312 L 280 313 L 278 315 L 278 316 L 276 318 L 276 319 L 274 321 L 274 322 L 272 324 L 272 325 L 271 326 L 271 327 L 269 329 L 269 330 L 267 332 L 267 333 L 265 335 L 265 336 L 263 338 L 263 339 L 261 341 L 261 342 L 259 344 L 259 345 L 257 347 L 257 348 L 255 350 L 255 351 L 253 353 L 253 354 L 251 356 L 251 357 L 249 359 L 249 360 L 248 361 L 248 362 L 246 364 L 246 365 L 244 367 L 244 368 L 241 371 L 241 372 L 240 373 L 240 374 L 238 376 L 238 377 L 235 380 L 235 381 L 233 383 L 233 384 L 231 386 L 231 387 L 228 390 L 228 391 L 226 393 L 226 394 L 223 397 L 223 398 L 220 401 L 220 402 L 217 405 L 217 406 L 213 410 L 213 411 L 210 414 L 210 415 L 206 419 L 206 420 L 201 425 L 201 426 L 194 433 L 194 434 L 176 452 L 175 452 L 169 458 L 168 458 L 164 462 L 163 462 L 160 465 L 159 465 L 157 467 L 156 467 L 154 469 L 153 469 L 151 471 L 150 471 L 149 472 L 148 472 L 146 474 L 145 474 L 144 475 L 143 475 L 142 476 L 141 476 L 140 477 L 139 477 L 138 478 L 137 478 L 136 479 L 135 479 L 134 480 L 133 480 L 132 481 L 131 481 L 130 482 L 128 482 L 127 483 L 126 483 L 125 484 L 123 484 L 122 485 L 120 485 L 119 486 L 117 486 L 116 487 L 113 487 L 112 488 L 109 488 L 108 489 L 104 489 L 103 490 L 95 490 L 94 491 L 73 491 L 72 490 L 66 490 L 65 489 L 61 489 L 60 488 L 57 488 L 56 487 L 54 487 L 53 486 L 51 486 L 50 485 L 49 485 L 48 484 L 47 484 L 46 483 L 45 483 L 43 481 L 42 481 L 41 480 L 40 480 L 38 478 L 37 478 L 29 470 L 29 469 L 26 466 L 26 465 L 24 463 L 24 462 L 23 461 L 23 460 L 22 459 L 22 457 L 21 456 L 21 455 L 20 455 L 20 466 L 21 467 L 21 470 L 22 471 L 22 473 L 23 474 L 23 475 L 24 476 L 24 477 L 25 478 L 25 479 L 26 480 L 26 481 L 27 482 L 27 483 L 32 488 L 32 489 L 34 491 L 35 491 L 39 495 L 40 495 L 43 498 L 44 498 L 45 499 L 46 499 L 47 500 L 48 500 L 49 501 L 50 501 L 51 502 L 52 502 L 53 503 L 54 503 L 55 504 L 57 504 L 58 505 L 60 505 L 61 506 L 63 506 L 64 507 L 66 507 L 67 508 L 71 508 L 72 509 L 76 509 L 77 510 L 82 510 L 83 511 L 90 511 L 91 512 L 118 512 L 119 511 L 128 511 L 129 510 L 136 510 L 137 509 L 141 509 L 142 508 L 146 508 L 147 507 L 150 507 L 151 506 L 154 506 L 155 505 L 158 505 L 159 504 L 161 504 L 162 503 L 164 503 L 165 502 L 167 502 L 168 501 L 169 501 L 170 500 L 172 500 L 173 499 L 174 499 L 175 498 L 177 498 L 178 497 L 179 497 L 180 496 L 182 496 L 183 495 L 184 495 L 185 494 L 186 494 L 188 492 L 189 492 L 190 491 L 191 491 L 192 490 L 193 490 L 194 489 L 195 489 L 196 488 L 197 488 L 198 487 L 199 487 L 201 485 L 202 485 L 204 483 L 205 483 L 207 481 L 208 481 L 210 479 L 211 479 L 213 477 L 214 477 L 217 474 L 218 474 L 221 471 L 222 471 L 228 465 L 229 465 L 248 446 L 248 445 L 254 439 L 254 438 L 258 434 L 258 433 L 261 430 L 261 429 L 264 426 L 264 425 L 267 422 L 267 421 L 269 419 L 269 418 L 271 416 L 271 415 L 273 413 L 273 412 L 275 410 L 275 409 L 277 407 L 277 406 L 279 404 L 279 403 L 281 401 L 281 400 L 282 399 L 282 398 L 284 396 L 284 395 L 286 393 L 286 392 L 287 391 L 287 390 L 289 388 L 289 387 L 290 386 L 290 385 L 292 383 L 292 382 L 293 381 L 293 380 L 295 378 L 295 377 L 296 376 L 296 375 L 297 374 L 297 373 L 299 371 L 299 370 L 300 369 L 300 368 L 302 366 L 302 365 L 303 364 L 303 363 L 304 362 L 304 361 L 305 360 L 305 359 L 307 357 L 307 356 L 308 355 L 308 354 L 309 353 L 309 352 L 310 351 L 310 350 L 312 348 L 312 347 L 313 346 L 313 345 L 314 344 L 314 343 L 315 342 L 315 341 L 317 339 L 317 338 L 318 337 L 318 336 L 319 335 L 319 334 L 320 333 L 320 332 L 321 331 L 321 330 L 322 329 L 322 328 L 324 326 L 324 325 L 325 324 L 325 323 L 326 322 L 326 321 L 327 320 L 327 319 L 328 318 L 328 317 L 329 316 L 329 315 L 331 313 L 331 312 L 332 311 L 332 310 L 333 309 L 333 308 L 334 307 L 334 306 L 335 305 L 335 304 L 337 302 L 337 301 L 338 300 L 338 299 L 339 298 L 339 297 L 340 296 L 340 295 L 341 294 L 341 293 L 343 291 L 343 290 L 344 289 L 344 288 L 345 287 L 345 286 L 346 285 L 346 284 L 348 282 L 348 281 L 349 280 L 349 279 L 350 278 L 350 277 L 352 275 L 352 274 L 353 273 L 353 272 L 354 271 L 354 270 L 355 269 L 355 268 L 357 266 L 357 265 L 358 264 L 358 263 L 360 261 L 360 260 L 361 259 L 361 258 L 362 257 L 362 256 L 364 254 L 364 253 L 365 252 L 365 251 L 366 250 L 366 249 L 368 247 L 368 246 L 369 245 L 369 244 L 370 243 L 370 242 L 372 240 L 372 239 L 374 237 L 374 236 L 375 235 L 375 234 L 377 232 L 377 231 L 378 230 L 378 229 L 380 227 L 380 226 L 382 224 L 382 223 L 384 221 L 384 220 L 385 219 L 385 218 L 387 216 L 387 215 L 389 213 L 389 212 L 391 210 L 391 209 L 393 207 L 393 206 L 396 203 L 396 202 L 399 199 L 399 198 L 401 196 L 401 195 L 404 192 L 404 191 L 407 188 L 407 187 L 411 183 L 411 182 L 416 177 L 416 176 L 430 162 L 431 163 L 431 164 L 430 165 L 430 166 L 429 167 L 429 168 L 428 169 L 428 171 L 427 172 L 427 173 L 426 174 L 426 176 L 425 177 L 425 179 L 424 180 L 424 181 L 423 182 L 423 184 L 422 185 L 422 187 L 421 188 L 421 190 L 420 191 L 420 193 L 419 194 L 419 197 L 418 198 L 418 200 L 417 201 L 417 204 L 416 205 L 416 208 L 415 209 L 415 212 L 414 213 L 414 217 L 413 218 L 413 222 L 412 223 L 412 226 L 411 227 L 411 232 L 410 233 L 410 238 L 409 239 L 409 244 L 408 245 L 408 251 L 407 252 L 407 260 L 406 261 L 406 271 L 405 272 L 405 290 L 404 291 L 404 340 L 405 341 L 405 356 L 406 357 L 406 369 L 407 370 L 407 378 L 408 379 L 408 387 L 409 388 L 409 394 L 410 395 L 410 401 L 411 402 L 411 408 L 412 409 L 412 414 L 413 415 L 413 420 L 414 421 L 414 424 L 415 425 L 415 429 L 416 430 L 416 434 L 417 435 L 417 439 L 418 440 L 418 445 L 419 446 L 419 449 L 420 450 L 420 454 L 421 455 L 421 459 L 422 460 L 422 464 L 423 465 L 423 468 L 424 469 L 424 472 L 425 473 L 425 474 L 427 474 L 428 475 L 431 475 L 432 474 L 437 474 L 438 473 L 441 473 L 442 472 L 444 472 L 445 471 L 447 471 L 448 470 L 449 470 L 451 468 L 452 468 L 453 467 L 454 467 L 456 465 L 457 465 L 466 456 L 466 455 L 467 454 L 467 453 L 468 452 L 468 451 L 469 450 L 469 449 L 470 448 L 470 446 L 471 445 L 471 443 L 472 442 L 472 439 L 473 438 L 473 436 L 474 435 L 474 433 L 475 432 L 475 430 L 476 429 L 476 427 L 477 426 L 477 424 L 478 423 L 478 422 L 479 421 L 479 419 L 480 418 L 480 416 L 481 415 L 481 413 L 482 412 L 482 410 L 483 409 L 483 407 L 484 406 L 484 404 L 485 403 L 485 402 L 486 401 L 486 399 L 487 398 L 487 396 L 488 395 L 488 393 L 489 392 L 489 391 L 490 390 L 490 388 L 491 387 L 491 385 L 492 384 L 492 383 L 493 382 L 493 380 L 494 379 L 494 377 L 495 376 L 495 375 L 496 374 L 496 372 L 497 371 L 497 369 L 498 368 L 498 366 L 499 365 L 499 364 L 500 363 L 500 361 L 501 360 L 501 359 L 502 358 L 502 356 L 503 355 L 503 354 L 504 353 L 504 351 L 505 350 L 505 349 L 506 348 L 506 346 L 507 345 L 507 344 L 508 343 L 508 341 L 509 340 L 509 339 L 510 338 L 510 337 L 511 336 L 511 334 L 512 333 L 512 331 L 513 330 L 513 329 L 514 328 L 514 327 L 515 326 L 515 325 L 516 324 L 516 322 L 517 321 L 517 320 L 518 319 L 518 318 L 519 317 L 519 316 L 520 315 L 520 314 L 521 313 L 521 311 L 522 310 L 522 309 L 523 308 L 523 307 L 524 306 L 524 305 L 525 304 L 525 303 L 526 302 L 526 301 L 527 300 L 527 299 L 528 298 L 528 297 L 529 296 L 529 295 L 530 294 L 530 292 L 531 291 L 531 290 L 532 289 L 532 288 L 533 287 L 533 286 L 535 284 L 535 283 L 536 282 L 536 281 L 537 280 L 537 279 L 538 278 L 538 277 L 539 276 L 539 275 L 540 274 L 540 273 L 541 272 L 541 271 L 542 270 L 542 269 L 544 267 L 544 266 L 545 265 L 545 264 L 546 263 L 546 262 L 547 261 L 547 260 L 549 258 L 549 257 L 550 256 L 550 255 L 552 253 L 552 252 L 553 251 L 553 250 L 555 248 L 555 247 L 557 245 L 557 244 L 558 243 L 558 242 L 560 240 L 560 239 L 561 238 L 561 237 L 563 235 L 563 234 L 565 232 L 565 231 L 568 228 L 568 227 L 570 225 L 570 224 L 572 222 L 572 221 L 575 218 L 575 217 L 578 214 L 578 213 L 581 210 L 581 209 L 585 205 L 585 204 L 588 201 L 588 200 L 593 195 L 593 194 L 599 188 L 599 187 L 606 180 L 606 179 L 637 148 L 638 148 L 646 140 L 647 140 L 651 136 L 652 136 L 656 132 L 657 132 L 663 126 L 664 126 L 667 123 L 668 123 L 670 121 L 671 121 L 674 118 L 675 118 L 678 115 L 679 115 L 681 113 L 682 113 L 684 111 L 685 111 L 687 109 L 688 109 L 690 107 L 691 107 L 693 105 L 694 105 L 696 103 L 697 103 L 699 101 L 700 101 L 701 100 L 702 100 L 704 98 L 705 98 L 706 97 L 707 97 L 709 95 L 710 95 L 711 94 L 712 94 L 714 92 L 715 92 L 716 91 L 717 91 L 718 90 L 719 90 L 720 89 L 721 89 L 723 87 L 724 87 L 725 86 L 726 86 L 727 85 L 728 85 L 729 84 L 730 84 L 731 83 L 732 83 L 733 82 L 734 82 L 735 81 L 736 81 L 737 80 L 738 80 L 739 79 L 740 79 L 741 78 L 742 78 L 743 77 L 744 77 L 745 76 L 746 76 L 747 75 L 748 75 L 749 74 L 751 74 L 752 73 L 753 73 L 754 72 L 755 72 L 756 71 L 758 71 L 759 70 L 760 70 L 761 69 L 762 69 L 763 68 L 765 68 L 766 67 L 767 67 L 768 66 L 770 66 L 771 65 L 772 65 L 773 64 L 775 64 L 776 63 L 777 63 L 778 62 L 780 62 L 781 61 L 783 61 L 784 60 L 786 60 L 787 59 L 789 59 L 790 58 L 792 58 L 793 57 L 795 57 L 796 56 L 798 56 L 799 55 L 802 55 L 803 54 L 805 54 L 806 53 L 809 53 L 810 52 L 812 52 L 813 51 L 815 51 L 816 50 L 819 50 L 820 49 L 823 49 L 824 48 L 827 48 L 828 47 L 831 47 L 832 46 L 835 46 L 836 45 L 840 45 L 841 44 L 845 44 L 846 43 L 850 43 L 851 42 L 856 42 L 857 41 L 861 41 L 862 40 L 869 40 L 870 39 L 876 39 L 877 38 L 884 38 L 885 37 L 892 37 L 893 36 L 901 36 L 902 35 L 911 35 L 912 34 L 924 34 L 925 33 L 939 33 L 940 32 L 964 32 L 965 31 L 981 31 L 982 32 L 1008 32 L 1009 33 L 1026 33 L 1027 34 L 1037 34 L 1038 35 L 1047 35 L 1048 36 L 1055 36 L 1056 37 L 1063 37 L 1064 38 L 1071 38 L 1072 39 L 1077 39 L 1078 40 L 1083 40 L 1084 41 L 1089 41 L 1090 42 L 1093 42 L 1094 43 L 1099 43 L 1100 44 L 1103 44 L 1104 45 L 1108 45 L 1109 46 L 1113 46 L 1114 47 L 1117 47 L 1118 48 L 1121 48 L 1122 49 L 1125 49 L 1126 50 L 1130 50 L 1131 51 L 1133 51 L 1134 52 L 1137 52 L 1138 53 L 1140 53 L 1141 54 L 1143 54 L 1144 55 L 1147 55 L 1148 56 L 1150 56 L 1151 57 L 1153 57 L 1154 58 L 1156 58 L 1157 59 L 1159 59 L 1158 58 L 1157 58 L 1156 57 L 1154 57 L 1153 56 L 1152 56 L 1151 55 L 1150 55 L 1149 54 L 1148 54 L 1147 53 L 1145 53 L 1144 52 L 1143 52 L 1142 51 L 1140 51 L 1139 50 L 1137 50 L 1136 49 L 1135 49 L 1134 48 L 1132 48 L 1131 47 L 1128 47 L 1127 46 L 1125 46 L 1124 45 L 1122 45 L 1121 44 L 1119 44 L 1118 43 L 1115 43 L 1114 42 L 1112 42 L 1111 41 L 1108 41 L 1107 40 L 1104 40 L 1103 39 L 1100 39 L 1099 38 L 1096 38 L 1095 37 L 1091 37 L 1090 36 L 1087 36 L 1086 35 L 1082 35 L 1081 34 L 1078 34 L 1077 33 L 1073 33 L 1072 32 L 1067 32 L 1066 31 L 1061 31 L 1060 30 L 1055 30 L 1054 29 L 1049 29 L 1048 28 L 1043 28 L 1042 27 L 1036 27 L 1035 26 L 1027 26 L 1026 25 L 1018 25 L 1017 24 L 1007 24 L 1006 23 L 995 23 L 994 22 L 982 22 L 981 21 L 953 21 L 952 20 Z" fill="#000000" fill-rule="evenodd"/>
</svg>